<ttFont>
<head>
    <!-- Most of this table will be recalculated by the compiler -->
    <tableVersion value="1.0"/>
    <fontRevision value="2.004"/>
    <checkSumAdjustment value="0x267bd571"/>
    <magicNumber value="0x5f0f3cf5"/>
    <flags value="00000000 00000011"/>
    <unitsPerEm value="1000"/>
    <created value="Thu Oct  8 10:01:58 2009"/>
    <modified value="Thu Oct  8 10:01:58 2009"/>
    <xMin value="-473"/>
    <yMin value="-327"/>
    <xMax value="792"/>
    <yMax value="986"/>
    <macStyle value="00000000 00000010"/>
    <lowestRecPPEM value="3"/>
    <fontDirectionHint value="2"/>
    <indexToLocFormat value="0"/>
    <glyphDataFormat value="0"/>
  </head>
          <CharString index="0">
            rmoveto
            12 2 -9 11 -11 hhcurveto
            -8 -6 -4 -5 -6 hvcurveto
            -31 -39 -33 -17 -15 hhcurveto
            -13 -8 10 29 -27 hvcurveto
            9 -11 -13 9 -20 hhcurveto
            -25 -30 -16 -16 -25 hvcurveto
            -20 -14 -33 -21 -2 -14 rrcurveto
            -11 -2 9 -11 11 hhcurveto
            8 6 163 callsubr
            return
          </CharString>
          <CharString index="1">
            hintmask 01100000
            517 40 callsubr
            -12 hhcurveto
            -41 -14 6 6 -15 hvcurveto
            117 callsubr
            70 12 -41 80 -140 hhcurveto
            -41 -99 0 -65 -10 hvcurveto
            -24 -4 14 -13 19 hhcurveto
            12 25 7 30 6 hvcurveto
            19 3 38 4 31 hhcurveto
            85 51 -36 -90 -15 hvcurveto
            -185 -3 -133 -46 -16 -95 rrcurveto
            hintmask 10000000
            -67 -11 52 -61 99 hhcurveto
            36 63 7 36 61 hvcurveto
            hintmask 01000000
            -37 20 47 0 36 hhcurveto
            22 20 0 22 4 hvcurveto
            -138 106 rmoveto
            -4 -27 -4 -25 -50 -21 rrcurveto
            hintmask 10000000
            -19 -42 -49 0 -8 hhcurveto
            -71 -39 41 45 7 hvcurveto
            9 53 99 46 169 5 rrcurveto
            return
          </CharString>
          <CharString index="2">
            15 3 90 callgsubr
            -10 219 callsubr
            0 -25 20 hhcurveto
            0 5 1 2 1 vhcurveto
            155 64 20 8 6 239 callsubr
            endchar
          </CharString>
          <CharString index="3">
            rmoveto
            -105 callsubr
          </CharString>
          <CharString index="4">
            477 102 rmoveto
            19 3 -21 0 -4 hhcurveto
            -12 -6 -1 -10 -6 hvcurveto
            -63 -38 -62 -11 -32 hhcurveto
            -82 -73 55 106 -2 hvcurveto
            320 hlineto
            17 14 0 28 5 hvcurveto
            112 18 -46 97 -128 hhcurveto
            -117 -111 -99 -121 -20 hvcurveto
            -121 -20 83 -99 128 hhcurveto
            127 61 84 24 4 hvcurveto
            -28 137 rmoveto
            -299 hlineto
            93 33 75 60 77 hhcurveto
            58 66 -27 -126 -10 hvcurveto
            return
          </CharString>
          <CharString index="5">
            -11 -66 -34 callsubr
            26 71 callsubr
            50 callgsubr
            -386 hlineto
            -11 -21 -65 callgsubr
            21 0 11 hhcurveto
            42 -36 callsubr
            -42 -85 callgsubr
            11 hhcurveto
            409 hlineto
            25 7 7 25 4 hvcurveto
            return
          </CharString>
          <CharString index="6">
            rlineto
            24 4 -3 8 -27 -97 callsubr
            return
          </CharString>
          <CharString index="7">
            rmoveto
            14 -53 callgsubr
            -4 -10 -4 -2 -12 rlinecurve
            -7 -1 0 -24 20 hhcurveto
            0 5 0 2 1 vhcurveto
            155 64 20 8 6 10 124 callgsubr
          </CharString>
          <CharString index="8">
            -88 callgsubr
            11 hhcurveto
            return
          </CharString>
          <CharString index="9">
            534 238 rmoveto
            20 12 callgsubr
            -124 hlineto
            -11 -20 51 callgsubr
            11 hhcurveto
            55 hlineto
            -135 -36 -65 -50 -59 hhcurveto
            -88 -66 115 159 27 hvcurveto
            165 27 109 110 84 hhcurveto
            39 67 -24 -125 -1 hvcurveto
            -10 5 -6 16 26 3 16 16 3 vhcurveto
            23 143 rlineto
            12 2 4 20 -21 hhcurveto
            -15 -7 -11 -42 -25 hvcurveto
            39 -39 -36 14 -41 hhcurveto
            -120 -123 -136 -180 174 callsubr
            78 -134 119 hhcurveto
            55 46 29 43 44 hvcurveto
            -45 -7 -3 -16 26 hhcurveto
            25 3 18 14 2 hvcurveto
            31 184 rlineto
            29 20 0 22 4 hvcurveto
            return
          </CharString>
          <CharString index="10">
            hhcurveto
            -75 -95 callsubr
            57 hlineto
            return
          </CharString>
          <CharString index="11">
            hstemhm
            hintmask 11000000
            -104 callgsubr
            return
          </CharString>
          <CharString index="12">
            hlineto
            -12 -20 -99 callsubr
            return
          </CharString>
          <CharString index="13">
            rmoveto
            1 8 -9 7 -10 7 -94 66 rcurveline
            -10 7 -12 0 -12 -7 -114 -66 rcurveline
            -12 -7 -13 -7 13 callsubr
            16 9 6 11 hvcurveto
            98 54 80 -54 rlineto
            -6 9 12 -9 6 hhcurveto
            17 9 -5 callsubr
            return
          </CharString>
          <CharString index="14">
            505 233 callsubr
            15 2 127 callsubr
            -2 hvcurveto
            -14 -82 rlineto
            -297 hlineto
            42 254 rlineto
            157 hlineto
            -44 -7 -2 -15 25 hhcurveto
            25 71 callsubr
            return
          </CharString>
          <CharString index="15">
            -20 -91 callsubr
            return
          </CharString>
          <CharString index="16">
            -103 callgsubr
            hintmask 00011000
            return
          </CharString>
          <CharString index="17">
            592 589 20 callsubr
            -110 -45 callsubr
            36 -36 callsubr
            -9 hlineto
            -110 539 rlineto
            28 -6 -14 2 -23 hhcurveto
            -71 -73 callsubr
            12 hhcurveto
            37 -36 callsubr
            -37 -54 callsubr
            110 -75 callsubr
            return
          </CharString>
          <CharString index="18">
            -74 callgsubr
            -74 -12 108 0 64 hhcurveto
            64 108 0 74 12 hvcurveto
            return
          </CharString>
          <CharString index="19">
            rmoveto
            12 2 -5 10 -17 hhcurveto
            -6 -16 -9 -6 -11 hvcurveto
            -98 -54 -80 54 rlineto
            6 -9 -12 9 -6 hhcurveto
            -17 -9 64 callsubr
            -1 -8 9 -7 10 -7 94 -66 rcurveline
            10 -7 12 0 12 7 114 66 rcurveline
            12 7 13 7 1 8 rrcurveto
            endchar
          </CharString>
          <CharString index="20">
            498 212 rmoveto
            10 55 -10 54 -36 51 45 22 23 37 6 37 rrcurveto
            26 4 -1 33 -34 hhcurveto
            -25 -1 -19 -19 -4 -21 -3 -17 7 -15 27 -10 -8 -20 -8 -16 -45 -4 rrcurveto
            20 -30 -31 9 -33 hhcurveto
            -54 -55 -24 -41 -43 hvcurveto
            -47 -42 -29 -56 -10 -58 -9 -57 12 -56 32 -41 rrcurveto
            -40 29 47 -24 54 hhcurveto
            55 55 24 40 43 hvcurveto
            46 41 30 56 9 57 rrcurveto
            -49 9 rmoveto
            -8 -47 -22 -46 -36 -36 rrcurveto
            -34 -32 -42 -21 -42 hhcurveto
            -41 -35 21 34 -21 hvcurveto
            -24 36 -6 46 8 47 7 44 22 43 35 33 rrcurveto
            30 32 42 20 40 hhcurveto
            41 36 -20 -30 22 hvcurveto
            23 -33 8 -43 -7 -44 rrcurveto
            return
          </CharString>
          <CharString index="21">
            -102 -17 -93 -14 -37 hhcurveto
            -92 7 40 38 6 hvcurveto
            47 279 -101 callsubr
            return
          </CharString>
          <CharString index="22">
            490 233 callsubr
            15 2 3 17 -25 240 callsubr
            -16 -2 hvcurveto
            -14 -82 rlineto
            -270 67 callsubr
            68 -61 callgsubr
            -167 36 callsubr
            -20 -3 54 callgsubr
            48 -36 callsubr
            -48 hlineto
            -12 -19 -84 callgsubr
            54 callgsubr
            388 31 callsubr
            return
          </CharString>
          <CharString index="23">
            15 -19 -31 18 -45 hhcurveto
            -91 -81 -72 -83 -14 hvcurveto
            -7 -42 11 -31 15 -25 -18 -21 -12 -21 -5 -28 -6 -34 10 -23 12 -21 -89 -49 -12 -66 -2 -10 rrcurveto
            -85 -14 95 -57 126 hhcurveto
            126 115 58 84 14 hvcurveto
            6 35 -10 48 -44 26 rrcurveto
            7 -11 -39 21 -90 hhcurveto
            -73 hlineto
            -8 -14 1 1 -9 hvcurveto
            -18 -7 1 18 -12 hvcurveto
            -11 17 3 26 0 vvcurveto
            1 5 5 17 13 23 rrcurveto
            -9 13 32 -22 48 hhcurveto
            return
          </CharString>
          <CharString index="24">
            hstemhm
            hintmask 11000000
            -100 callgsubr
            return
          </CharString>
          <CharString index="25">
            39 callsubr
            hintmask 1111000011101000
            -84 callsubr
            hintmask 0010100001010000
            -50 callgsubr
            hintmask 1101000010110000
            -24 callgsubr
            return
          </CharString>
          <CharString index="26">
            17 callgsubr
            hintmask 1100010010000000
            -93 callsubr
            hintmask 0110001100000000
            -8 callgsubr
            hintmask 1010011001000000
            -102 callsubr
            return
          </CharString>
          <CharString index="27">
            rmoveto
            5 -4 7 -4 4 vhcurveto
            -54 62 -10 10 -8 5 -12 2 rlinecurve
            179 callsubr
            -2 hvcurveto
            -2 -9 13 -13 10 -10 40 -45 rcurveline
            -7 6 14 -14 8 hhcurveto
            13 17 17 13 3 hvcurveto
            -201 hmoveto
            5 -4 7 -4 4 vhcurveto
            -54 62 -10 10 -8 5 -12 2 rlinecurve
            179 callsubr
            -2 hvcurveto
            -2 -9 13 -13 10 -10 40 -45 rcurveline
            -7 6 14 -14 8 hhcurveto
            13 17 17 13 3 hvcurveto
            endchar
          </CharString>
          <CharString index="28">
            116 callgsubr
            5 -128 62 rcurveline
            -8 4 -6 0 0 vvcurveto
            -15 -13 -11 -15 -3 hvcurveto
            -1 -8 2 -10 18 -8 133 -64 rcurveline
            2 -1 5 -1 123 callsubr
            25 166 callgsubr
          </CharString>
          <CharString index="29">
            14 callgsubr
            -20 -3 13 -16 20 hhcurveto
            20 19 16 20 3 hvcurveto
            return
          </CharString>
          <CharString index="30">
            609 589 22 callsubr
            34 hlineto
            -157 -535 rlineto
            -4 hlineto
            -12 308 rlineto
            18 -1 -23 -1 -7 hhcurveto
            -8 -21 1 -17 -7 hvcurveto
            -116 -309 rlineto
            -4 hlineto
            22 535 rlineto
            34 -72 callgsubr
            -82 150 callgsubr
            21 0 7 hhcurveto
            10 hlineto
            -17 -550 rlineto
            -27 23 0 10 7 17 0 14 10 vhcurveto
            119 306 15 -302 rlineto
            -18 1 24 0 5 hhcurveto
            10 23 0 27 8 hvcurveto
            167 550 rlineto
            17 209 callsubr
            return
          </CharString>
          <CharString index="31">
            rmoveto
            1 5 -5 7 -3 4 -55 62 rcurveline
            -9 10 -8 5 -12 2 rrcurveto
            179 callsubr
            -3 hvcurveto
            -1 -9 13 -13 9 -10 41 -45 rcurveline
            -7 5 21 callsubr
            -201 hmoveto
            1 5 -5 7 -3 4 -55 62 rcurveline
            -9 10 -8 5 -12 2 rrcurveto
            179 callsubr
            -3 hvcurveto
            -1 -9 13 -13 9 -10 41 -45 rcurveline
            -7 5 21 callsubr
            endchar
          </CharString>
          <CharString index="32">
            hlineto
            172 callsubr
            -12 hhcurveto
            return
          </CharString>
          <CharString index="33">
            -19 callsubr
            -21 -4 return
          </CharString>
          <CharString index="34">
            hlineto
            -11 -20 -65 callsubr
            return
          </CharString>
          <CharString index="35">
            rmoveto
            23 4 -18 0 -13 hhcurveto
            -308 202 callgsubr
            307 hlineto
            12 45 callsubr
            endchar
          </CharString>
          <CharString index="36">
            -21 -4 -90 callgsubr
            return
          </CharString>
          <CharString index="37">
            601 589 20 callsubr
            -108 -73 callsubr
            34 hhcurveto
            -170 -280 -79 280 rlineto
            35 83 callsubr
            -108 -73 callsubr
            12 hhcurveto
            28 hlineto
            103 -325 rlineto
            return
          </CharString>
          <CharString index="38">
            508 163 rmoveto
            24 4 -18 0 -8 hhcurveto
            -6 -17 0 -20 -5 hvcurveto
            -109 -25 -96 -27 -45 hhcurveto
            -98 -77 113 162 27 hvcurveto
            161 27 116 113 96 hhcurveto
            66 53 -50 -90 hvcurveto
            -13 1 0 -12 21 hhcurveto
            26 3 16 16 3 hvcurveto
            23 143 rlineto
            12 2 4 20 -21 hhcurveto
            66 callsubr
            36 -36 -42 19 -50 hhcurveto
            -129 -133 -134 -182 174 callsubr
            87 -134 130 hhcurveto
            113 100 86 88 14 hvcurveto
            return
          </CharString>
          <CharString index="39">
            rmoveto
            3 21 -7 -19 callgsubr
            -8 51 callsubr
            7 14 5 84 callsubr
            16 13 callgsubr
            return
          </CharString>
          <CharString index="40">
            -74 -12 108 0 64 hhcurveto
            64 108 0 74 12 hvcurveto
            return
          </CharString>
          <CharString index="41">
            -89 callsubr
            23 142 rmoveto
            12 2 -9 11 -11 hhcurveto
            -8 -6 -4 -5 -6 hvcurveto
            -31 -39 -33 -17 -15 hhcurveto
            -13 -8 10 29 -27 hvcurveto
            9 -11 -13 9 -20 hhcurveto
            -25 -30 -16 -16 -24 hvcurveto
            -21 189 callgsubr
            -1 9 -11 11 hhcurveto
            8 5 133 callgsubr
            9 -9 89 callsubr
            10 14 -8 20 hhcurveto
            26 28 15 17 25 hvcurveto
            20 13 33 22 2 13 rrcurveto
            endchar
          </CharString>
          <CharString index="42">
            -65 callgsubr
            19 0 return
          </CharString>
          <CharString index="43">
            565 403 20 callsubr
            -121 -73 callsubr
            12 hhcurveto
            40 hlineto
            -173 -348 -74 348 rlineto
            41 2 callsubr
            return
          </CharString>
          <CharString index="44">
            -20 -84 callgsubr
            return
          </CharString>
          <CharString index="45">
            0 -22 -4 hvcurveto
            return
          </CharString>
          <CharString index="46">
            -20 -60 callgsubr
            return
          </CharString>
          <CharString index="47">
            0 -20 -3 hvcurveto
            -22 -4 return
          </CharString>
          <CharString index="48">
            -79 callgsubr
            -3 callgsubr
            return
          </CharString>
          <CharString index="49">
            -69 callgsubr
            21 3 return
          </CharString>
          <CharString index="50">
            -55 callsubr
            endchar
          </CharString>
          <CharString index="51">
            516 305 rmoveto
            34 205 4 70 -68 31 rrcurveto
            29 59 2 8 0 vvcurveto
            19 3 -19 2 -3 hhcurveto
            -14 -7 -14 -10 -4 hvcurveto
            -28 -55 rlineto
            2 -34 -22 0 -23 hhcurveto
            -184 -24 -28 -289 -48 hvcurveto
            -8 -46 -11 -67 -3 -49 -5 -76 4 -42 53 -26 rrcurveto
            -29 -58 -2 -8 0 vvcurveto
            -19 -3 19 -2 3 hhcurveto
            14 7 14 10 4 hvcurveto
            27 55 rlineto
            -2 35 21 0 24 186 callgsubr
            -38 1 rmoveto
            -11 -64 -14 -84 -21 -50 rrcurveto
            -67 -30 -47 -10 -88 hhcurveto
            -27 -3 0 1 -11 hvcurveto
            -6 -7 3 3 -10 hvcurveto
            259 527 30 -26 22 -19 -36 -214 rlinecurve
            -55 267 rmoveto
            -259 -527 -30 26 -22 19 36 214 rlinecurve
            11 64 14 84 21 50 rrcurveto
            67 30 47 10 88 hhcurveto
            27 3 0 -1 11 hvcurveto
            6 7 -3 -3 10 hvcurveto
            return
          </CharString>
          <CharString index="52">
            rmoveto
            14 3 -39 callgsubr
            16 callgsubr
            return
          </CharString>
          <CharString index="53">
            hlineto
            -11 -20 -50 callsubr
            return
          </CharString>
          <CharString index="54">
            352 -56 rmoveto
            75 449 rlineto
            24 4 -3 8 -27 hhcurveto
            -163 -95 callsubr
            145 hlineto
            -73 -434 -3 -18 -8 -42 -34 -39 rlinecurve
            -43 -38 -35 0 -26 hhcurveto
            -49 -23 10 0 hvcurveto
            8 17 rlineto
            22 4 -16 14 -17 hhcurveto
            -18 -20 -14 -23 -4 hvcurveto
            return
          </CharString>
          <CharString index="55">
            hintmask 0110000000000000
            517 40 callsubr
            -12 hhcurveto
            -41 -14 6 6 -15 hvcurveto
            117 callsubr
            70 12 -41 80 -140 hhcurveto
            -41 -99 0 -65 -10 hvcurveto
            -24 -4 14 -13 19 hhcurveto
            12 25 7 30 6 hvcurveto
            19 3 38 4 31 hhcurveto
            85 51 -36 -90 -15 hvcurveto
            -185 -3 -133 -46 -16 -95 rrcurveto
            hintmask 1000000000000000
            -67 -11 52 -61 99 hhcurveto
            36 63 7 36 61 hvcurveto
            hintmask 0100000000000000
            -37 20 47 0 36 hhcurveto
            22 20 0 22 4 hvcurveto
            -138 106 rmoveto
            -4 -27 -4 -25 -50 -21 rrcurveto
            return
          </CharString>
          <CharString index="56">
            173 callsubr
            3 -22 0 -4 hhcurveto
            -10 -6 -1 -7 -6 hvcurveto
            -23 -15 -33 -54 -81 hhcurveto
            -93 -66 77 100 17 hvcurveto
            53 8 51 126 148 hhcurveto
            26 46 -9 -11 -2 hvcurveto
            -28 -5 13 106 callsubr
            59 9 -100 6 -43 hhcurveto
            -170 -81 -134 -87 -14 hvcurveto
            -118 -20 76 -101 124 hhcurveto
            134 50 92 16 3 hvcurveto
            return
          </CharString>
          <CharString index="57">
            -60 callsubr
            54 callgsubr
            return
          </CharString>
          <CharString index="58">
            11 -47 callsubr
            return
          </CharString>
          <CharString index="59">
            15 6 14 5 1 84 callsubr
            15 -4 -7 10 hvcurveto
            7 -5 return
          </CharString>
          <CharString index="60">
            20 -55 callgsubr
            return
          </CharString>
          <CharString index="61">
            65 11 59 50 59 hhcurveto
            62 39 -54 -60 -10 hvcurveto
            49 -371 rmoveto
            -49 -8 -90 -51 -110 hhcurveto
            -111 -71 51 49 8 hvcurveto
            4 21 16 37 41 23 rrcurveto
            17 30 10 1 79 hhcurveto
            return
          </CharString>
          <CharString index="62">
            hlineto
            -12 -19 -99 callsubr
            return
          </CharString>
          <CharString index="63">
            14 2 -10 13 -14 hhcurveto
            -12 -2 -10 -5 -12 -10 -76 -62 rcurveline
            -4 -4 -8 225 callsubr
            14 7 8 hvcurveto
            56 45 12 10 17 13 2 9 rlinecurve
            return
          </CharString>
          <CharString index="64">
            -3 9 13 -4 6 hhcurveto
            17 9 -5 callsubr
            75 209 rmoveto
            3 21 -7 -19 callgsubr
            -7 hvcurveto
            -14 -3 5 -5 15 hhcurveto
            return
          </CharString>
          <CharString index="65">
            22 -25 callgsubr
            return
          </CharString>
          <CharString index="66">
            570 549 rmoveto
            14 2 -13 7 -9 hhcurveto
            -11 -5 -8 -7 -5 hvcurveto
            -106 -142 rlineto
            10 -23 -27 11 -39 hhcurveto
            -119 -111 -101 -120 -20 hvcurveto
            -10 -57 11 -65 56 -56 -94 -125 rcurveline
            -8 -11 -13 -17 -1 -6 rrcurveto
            -14 -2 13 -7 9 hhcurveto
            7 5 4 4 4 hvcurveto
            113 151 rlineto
            -18 39 30 -2 18 hhcurveto
            116 114 97 122 21 hvcurveto
            11 66 -21 62 -46 50 105 141 rcurveline
            7 10 2 7 0 vvcurveto
            -95 -336 rmoveto
            -99 -17 -93 -78 -97 hhcurveto
            -29 -7 2 11 -31 hvcurveto
            227 306 47 -49 6 -54 -6 -39 rlinecurve
            -79 165 rmoveto
            -229 -308 rlineto
            return
          </CharString>
          <CharString index="67">
            3 callgsubr
            37 217 -101 callsubr
            -88 -527 18 callsubr
            return
          </CharString>
          <CharString index="68">
            50 9 2 13 -31 -97 callsubr
            -57 -341 18 callsubr
            return
          </CharString>
          <CharString index="69">
            -12 -2 5 -10 17 hhcurveto
            return
          </CharString>
          <CharString index="70">
            -19 -32 callsubr
            return
          </CharString>
          <CharString index="71">
            hlineto
            -32 callgsubr
            return
          </CharString>
          <CharString index="72">
            0 42 147 43 64 157 callgsubr
            hstemhm
            80 38 119 38 -6 37 -31 37 -37 38 -32 38 50 38 59 38 -24 38 -21 38 0 37 hintmask 0000000000001000
            502 233 callsubr
            hintmask 0000000000010000
            11 2 3 21 -19 hhcurveto
            hintmask 0000000000001000
            -19 -3 -21 -11 -2 hvcurveto
            hintmask 1010000001010000
            -14 -82 rlineto
            -147 hlineto
            42 254 rlineto
            129 72 callsubr
            20 4 hvcurveto
            hintmask 0011000000100100
            22 3 -37 callsubr
            -129 hlineto
            39 231 rlineto
            139 hlineto
            -11 -66 rlineto
            -10 -2 -3 -22 19 hhcurveto
            hintmask 0001001000000010
            18 3 22 10 2 hvcurveto
            33 callsubr
            -3 8 -27 hhcurveto
            -290 161 callsubr
            hintmask 1101100100000000
            -21 -3 19 0 25 hhcurveto
            -195 -527 rlineto
            -29 44 callgsubr
            74 159 callsubr
            -30 hhcurveto
            55 147 rlineto
            hintmask 0100001000000000
            133 hlineto
            hintmask 1100010001010000
            -25 -147 rlineto
            -20 160 callgsubr
            201 hlineto
            25 7 7 25 4 hvcurveto
            -189 200 rmoveto
            -125 hlineto
            hintmask 0001000100100000
            124 337 rlineto
            57 hlineto
            hintmask 0100000010000000
            endchar
          </CharString>
          <CharString index="73">
            rlineto
            -14 -2 -3 -18 25 hhcurveto
            return
          </CharString>
          <CharString index="74">
            -34 -202 -22 callgsubr
            21 3 -19 0 -12 hhcurveto
            -36 hlineto
            return
          </CharString>
          <CharString index="75">
            0 -12 hhcurveto
            return
          </CharString>
          <CharString index="76">
            -4 15 -18 23 hhcurveto
            return
          </CharString>
          <CharString index="77">
            220 callsubr
            hintmask 00110000
            517 40 callsubr
            -12 hhcurveto
            -41 -14 6 6 -15 hvcurveto
            117 callsubr
            70 12 -41 80 -140 hhcurveto
            -41 -99 0 -65 -10 hvcurveto
            -24 -4 14 -13 19 hhcurveto
            12 25 7 30 6 hvcurveto
            19 3 38 4 31 hhcurveto
            85 51 -36 -90 -15 hvcurveto
            -185 -3 -133 -46 -16 -95 rrcurveto
            hintmask 01000000
            -67 -11 52 -61 99 hhcurveto
            36 63 7 36 61 hvcurveto
            hintmask 00100000
            -37 20 47 0 36 hhcurveto
            22 20 0 22 4 hvcurveto
            -138 106 rmoveto
            -4 -27 -4 -25 -50 -21 rrcurveto
            return
          </CharString>
          <CharString index="78">
            -36 67 callsubr
            9 hlineto
            110 -539 rlineto
            -29 6 16 -1 22 hhcurveto
            24 9 2 30 5 hvcurveto
            90 537 rlineto
            return
          </CharString>
          <CharString index="79">
            -22 -16 -15 -20 -3 hvcurveto
            -38 -6 25 -37 44 hhcurveto
            93 70 130 11 6 hvcurveto
            242 478 77 callgsubr
            return
          </CharString>
          <CharString index="80">
            52 callgsubr
            150 42 hstemhm
            121 51 -36 51 63 51 170 51 -24 51 hintmask 0011010010000000
            522 171 rmoveto
            8 48 2 103 -98 77 88 44 22 43 5 29 rrcurveto
            63 10 -73 39 -93 hhcurveto
            -62 -115 -19 -90 -15 hvcurveto
            -14 -83 rlineto
            hintmask 0110100000000000
            -66 -45 callsubr
            66 115 callsubr
            -66 65 callsubr
            hintmask 0100010000000000
            86 hlineto
            hintmask 0011101010000000
            26 6 7 25 4 hvcurveto
            78 468 5 25 2 16 44 18 rlinecurve
            11 27 29 5 28 hhcurveto
            71 46 -34 -27 -4 hvcurveto
            -4 -25 -42 -61 -114 -3 -9 -1 -11 -5 -3 -16 -2 -15 12 -5 3 -1 rrcurveto
            hintmask 1000000100000000
            144 -9 8 -143 -9 -59 rrcurveto
            -87 -15 -77 -48 -59 hhcurveto
            -9 -11 2 6 -12 hvcurveto
            5 27 0 3 -4 8 rrcurveto
            7 -4 -8 5 -10 hhcurveto
            -17 -17 -12 -21 -4 hvcurveto
            -34 -5 26 -33 63 hhcurveto
            90 101 69 108 18 hvcurveto
            endchar
          </CharString>
          <CharString index="81">
            hlineto
            11 21 0 return
          </CharString>
          <CharString index="82">
            14 3 -10 13 -14 hhcurveto
            -12 -2 -10 -5 -13 -10 -75 -62 rcurveline
            -5 42 callgsubr
            9 hvcurveto
            55 45 13 10 17 13 1 9 rlinecurve
            return
          </CharString>
          <CharString index="83">
            3 -13 97 callgsubr
            -19 -16 return
          </CharString>
          <CharString index="84">
            31 -36 callsubr
            -31 hlineto
            -11 160 callgsubr
            104 -31 callgsubr
            21 3 -20 -32 callsubr
            -33 hlineto
            25 152 131 136 113 -288 rlineto
            -29 -20 51 callgsubr
            12 hhcurveto
            77 hlineto
            12 21 -55 callgsubr
            return
          </CharString>
          <CharString index="85">
            206 callgsubr
            113 callgsubr
            72 50 -23 72 -42 50 hintmask 0110000101000000
            92 callgsubr
            59 351 -101 callsubr
            146 callsubr
            hintmask 1010000000000000
            -86 callsubr
            155 callsubr
            -92 -15 62 -22 70 hhcurveto
            40 43 10 39 58 hvcurveto
            hintmask 0100000010000000
            -43 -6 17 0 14 hhcurveto
            75 hlineto
            12 20 0 22 4 hvcurveto
            hintmask 0001001010000000
            8 callsubr
            hintmask 0001000001000000
            -20 -3 13 -16 20 hhcurveto
            return
          </CharString>
          <CharString index="86">
            -26 callsubr
            21 return
          </CharString>
          <CharString index="87">
            306 rmoveto
            26 4 -29 0 -10 hhcurveto
            -328 144 callgsubr
            328 197 callsubr
          </CharString>
          <CharString index="88">
            -21 -3 hvcurveto
            return
          </CharString>
          <CharString index="89">
            hlineto
            -11 -21 -60 callsubr
            return
          </CharString>
          <CharString index="90">
            -101 -95 callsubr
            102 hlineto
            -44 -263 rlineto
            -92 -15 59 -34 70 hhcurveto
            71 86 40 86 14 hvcurveto
            return
          </CharString>
          <CharString index="91">
            187 callsubr
            41 -20 97 -20 hstemhm
            119 callgsubr
            hintmask 0001000000000000
            633 655 rmoveto
            5 26 -4 32 -33 1 rrcurveto
            hintmask 1110011111000000
            4 callsubr
            return
          </CharString>
          <CharString index="92">
            hstemhm
            hintmask 10110000
            487 -153 rmoveto
            5 6 2 11 -6 6 200 callsubr
            -24 -29 156 callgsubr
            8 47 48 41 67 36 rrcurveto
            25 20 0 22 4 hvcurveto
            20 3 -20 -32 callsubr
            -41 -14 6 6 -15 hvcurveto
            117 callsubr
            70 12 -41 80 -140 hhcurveto
            -41 -99 0 -65 -10 hvcurveto
            -24 -4 14 -13 19 hhcurveto
            12 25 7 30 6 hvcurveto
            19 3 38 4 31 hhcurveto
            85 51 -36 -90 -15 hvcurveto
            -185 -3 -133 -46 -16 -95 rrcurveto
            hintmask 11000000
            -67 -11 52 -61 99 hhcurveto
            36 63 7 36 61 hvcurveto
            10 -18 9 -7 31 -10 -62 -36 -44 -43 90 callsubr
            -108 281 rmoveto
            -4 -27 -4 -25 -50 -21 rrcurveto
            -19 -42 -49 0 -8 hhcurveto
            -71 -39 41 45 7 hvcurveto
            9 53 99 46 169 5 rrcurveto
            return
          </CharString>
          <CharString index="93">
            21 4 hvcurveto
            return
          </CharString>
          <CharString index="94">
            74 callsubr
            3 28 13 27 hhcurveto
            27 22 -13 -23 -3 hvcurveto
            50 hmoveto
            39 6 -37 34 -59 hhcurveto
            -59 -49 -34 -39 -6 hvcurveto
            -38 -7 38 -33 59 hhcurveto
            59 48 33 38 7 hvcurveto
            return
          </CharString>
          <CharString index="95">
            -74 callgsubr
            hintmask 0001000001000000
            -67 callsubr
            -52 167 145 callsubr
            hintmask 0000011000100000
            13 -17 -20 60 callsubr
            hintmask 0000010001001000
            41 callgsubr
            hintmask 0000100010000000
            -42 -22 -36 -27 -7 -42 rrcurveto
            hintmask 0000100100000000
            -45 callgsubr
            hintmask 0000100010010000
            101 callgsubr
            17 19 3 22 rrcurveto
            endchar
          </CharString>
          <CharString index="96">
            84 callgsubr
            341 42 -36 42 hstemhm
            109 50 0 50 -28 28 31 28 102 116 callsubr
            hintmask 0010000000100000
            -7 callsubr
            hintmask 0000100001000000
            3 callgsubr
            hintmask 0011010100000000
            -39 callsubr
            164 159 callsubr
            -12 hhcurveto
            -56 hlineto
            32 194 rlineto
            hintmask 0000100001000000
            111 19 90 42 57 hhcurveto
            62 13 -32 -70 -12 hvcurveto
            hintmask 0010000000100000
            -41 -245 rlineto
            -51 -85 callgsubr
            11 hhcurveto
            return
          </CharString>
          <CharString index="97">
            17 15 3 hvcurveto
            return
          </CharString>
          <CharString index="98">
            40 callgsubr
            hstem
            498 3 callsubr
            -30 hlineto
            -104 285 162 242 rlineto
            30 -61 callgsubr
            -108 -73 callsubr
            35 hhcurveto
            -121 -185 -66 185 rlineto
            32 83 callsubr
            -107 hlineto
            -11 159 callgsubr
            30 hlineto
            88 -243 -190 -284 rlineto
            -29 hlineto
            -12 -19 158 callgsubr
            21 3 -20 0 -35 hhcurveto
            150 235 81 -235 rlineto
            -35 -18 158 callgsubr
            endchar
          </CharString>
          <CharString index="99">
            hvcurveto
            -67 callsubr
            return
          </CharString>
          <CharString index="100">
            514 21 rmoveto
            207 callgsubr
            42 251 rlineto
            return
          </CharString>
          <CharString index="101">
            rmoveto
            13 2 -6 141 callgsubr
            -15 -76 -6 -48 hhcurveto
            -49 -73 6 34 -3 hvcurveto
            6 -1 -4 5 -11 hhcurveto
            -13 -11 -9 -13 -2 81 callgsubr
          </CharString>
          <CharString index="102">
            10 12 2 hvcurveto
            return
          </CharString>
          <CharString index="103">
            hstemhm
            257 50 -43 callgsubr
            hintmask 00110000
            return
          </CharString>
          <CharString index="104">
            114 -21 425 -20 hstem
            259 48 12 48 vstem
            487 211 rmoveto
            2 9 -4 6 -2 3 -129 76 rcurveline
            141 70 9 5 13 7 2 13 rlinecurve
            3 3 20 -27 1 vhcurveto
            -153 -80 25 141 rlineto
            7 1 4 26 -24 hhcurveto
            -24 -4 -26 -7 -1 hvcurveto
            -23 -142 -123 80 rlineto
            -2 1 -4 0 0 vvcurveto
            -15 -11 -13 -11 -2 hvcurveto
            -2 -13 8 -5 9 -6 118 -70 rcurveline
            -141 -70 -9 -5 -13 -7 -2 -13 rlinecurve
            -3 -3 -20 27 -1 vhcurveto
            152 80 -24 -141 rlineto
            -7 -1 -4 -26 24 hhcurveto
            24 4 26 7 1 hvcurveto
            23 140 99 -64 rlineto
            -14 22 1 -1 7 hhcurveto
            15 11 13 11 2 hvcurveto
            endchar
          </CharString>
          <CharString index="105">
            52 callsubr
            -25 hhcurveto
            return
          </CharString>
          <CharString index="106">
            hlineto
            10 callgsubr
            return
          </CharString>
          <CharString index="107">
            13 11 15 hhcurveto
            0 6 0 8 -4 vhcurveto
            128 -62 9 -5 return
          </CharString>
          <CharString index="108">
            22 79 40 77 13 hvcurveto
            endchar
          </CharString>
          <CharString index="109">
            -72 callgsubr
            -121 36 callsubr
            return
          </CharString>
          <CharString index="110">
            21 -23 callgsubr
            return
          </CharString>
          <CharString index="111">
            -82 callgsubr
            hintmask 0010100000000000
            return
          </CharString>
          <CharString index="112">
            6 1 0 12 -9 hhcurveto
            -9 -9 -6 -8 -7 hvcurveto
            -426 -593 -1 -3 -7 -7 -1 -4 rlinecurve
            -15 -3 1 -7 13 hhcurveto
            9 6 6 8 7 hvcurveto
            424 592 3 3 7 12 1 4 rlinecurve
            endchar
          </CharString>
          <CharString index="113">
            -42 -18 -84 callgsubr
            return
          </CharString>
          <CharString index="114">
            -32 callgsubr
            -54 -54 callsubr
            159 184 callgsubr
            -37 callsubr
            -61 hlineto
            16 96 109 85 110 -183 rlineto
            -50 -16 2 184 callsubr
            122 -31 callgsubr
            return
          </CharString>
          <CharString index="115">
            -207 541 14 callgsubr
            return
          </CharString>
          <CharString index="116">
            0 42 211 43 273 42 hstem
            109 50 38 50 251 51 vstem
            549 432 168 callsubr
            -232 hlineto
            -11 -21 -65 callgsubr
            21 0 11 hhcurveto
            42 -36 callsubr
            -42 -85 callgsubr
            11 hhcurveto
            134 39 callgsubr
            -42 hlineto
            35 211 56 callsubr
            46 273 218 callsubr
            -78 -59 -10 hvcurveto
            endchar
          </CharString>
          <CharString index="117">
            0 184 callsubr
            return
          </CharString>
          <CharString index="118">
            84 callgsubr
            341 42 144 42 hstemhm
            115 44 0 44 -22 28 31 28 16 44 -9 44 115 44 hintmask 0011000000110000
            510 3 callsubr
            -35 hlineto
            -127 211 159 130 rlineto
            37 -61 callgsubr
            -159 hlineto
            hintmask 0001101001000000
            -12 -19 -99 callsubr
            64 hlineto
            -236 -192 65 388 rlineto
            24 4 -3 8 -27 hhcurveto
            -67 -73 callsubr
            12 hhcurveto
            54 hlineto
            return
          </CharString>
          <CharString index="119">
            4 19 3 18 18 21 38 19 rlinecurve
            20 9 16 19 4 22 rrcurveto
            endchar
          </CharString>
          <CharString index="120">
            -1 -8 rrcurveto
            -38 callsubr
            6 return
          </CharString>
          <CharString index="121">
            -302 109 -95 callgsubr
            return
          </CharString>
          <CharString index="122">
            16 95 -2 callsubr
            -25 174 callgsubr
            -16 -95 rlineto
            return
          </CharString>
          <CharString index="123">
            42 129 42 368 42 return
          </CharString>
          <CharString index="124">
            30 callsubr
            10 hhcurveto
            return
          </CharString>
          <CharString index="125">
            rlineto
            -56 hlineto
            -12 -20 10 callsubr
            return
          </CharString>
          <CharString index="126">
            178 callsubr
            -37 callsubr
            return
          </CharString>
          <CharString index="127">
            rmoveto
            -42 callsubr
            return
          </CharString>
          <CharString index="128">
            14 -14 8 hhcurveto
            13 18 17 13 2 hvcurveto
            return
          </CharString>
          <CharString index="129">
            rmoveto
            22 70 callsubr
            -82 -45 callsubr
            return
          </CharString>
          <CharString index="130">
            rmoveto
            14 2 -13 0 -7 hhcurveto
            -38 hlineto
            30 179 rlineto
            17 3 -3 4 -17 hhcurveto
            -12 hlineto
            -12 -2 -1 -9 -7 hvcurveto
            -145 -183 -5 -6 0 -1 -2 -9 rlinecurve
            -18 -3 6 -2 14 hhcurveto
            122 hlineto
            -9 -55 rlineto
            -30 hlineto
            -7 -13 0 -14 -2 hvcurveto
            -15 -3 13 0 7 hhcurveto
            88 hlineto
            7 13 0 15 3 hvcurveto
            14 2 -13 0 -7 hhcurveto
            -30 hlineto
            9 55 rlineto
            38 hlineto
            7 13 0 15 3 hvcurveto
            return
          </CharString>
          <CharString index="131">
            477 32 rmoveto
            10 60 rlineto
            14 3 3 18 128 callgsubr
            -8 -50 rlineto
            -314 hlineto
            return
          </CharString>
          <CharString index="132">
            444 149 rmoveto
            20 17 -16 21 -5 7 -94 112 rcurveline
            131 111 7 7 22 22 -16 18 rlinecurve
            -13 14 -23 -18 -9 -6 -129 -112 rcurveline
            -93 113 -6 6 -18 19 -20 -17 rlinecurve
            -20 -17 16 -21 5 -7 94 -112 rcurveline
            -130 -110 -8 -8 -22 -22 16 -18 rlinecurve
            13 -14 23 18 8 6 130 112 rcurveline
            93 -113 6 -6 18 -19 20 17 rlinecurve
            return
          </CharString>
          <CharString index="133">
            -20 callgsubr
            -23 -21 -18 return
          </CharString>
          <CharString index="134">
            -59 49 40 -9 31 hhcurveto
            107 111 94 125 21 hvcurveto
            -50 hmoveto
            -106 -18 -90 -71 -77 hhcurveto
            -88 -24 98 53 9 hvcurveto
            13 76 rlineto
            return
          </CharString>
          <CharString index="135">
            -237 42 199 38 78 41 229 41 -36 41 -38 38 return
          </CharString>
          <CharString index="136">
            -12 58 callsubr
            return
          </CharString>
          <CharString index="137">
            hlineto
            -12 -20 31 callgsubr
            return
          </CharString>
          <CharString index="138">
            hlineto
            26 6 7 25 4 hvcurveto
            return
          </CharString>
          <CharString index="139">
            -19 -65 callsubr
            return
          </CharString>
          <CharString index="140">
            13 76 rlineto
            24 4 return
          </CharString>
          <CharString index="141">
            116 callsubr
            157 callsubr
            hintmask 0010000100000000
            3 callgsubr
            return
          </CharString>
          <CharString index="142">
            hstemhm
            137 callgsubr
            203 51 10 51 return
          </CharString>
          <CharString index="143">
            hlineto
            29 callsubr
            return
          </CharString>
          <CharString index="144">
            21 70 callsubr
            return
          </CharString>
          <CharString index="145">
            333 -21 217 82 hstem
            375 42 vstem
            417 503 rmoveto
            72 12 -26 36 -38 hhcurveto
            -27 -19 -21 -20 -3 hvcurveto
            -23 -4 13 -19 25 hhcurveto
            6 8 1 0 hvcurveto
            8 5 -14 -12 -2 hvcurveto
            -3 -20 -17 -80 -95 -50 -7 -4 -8 -5 -1 -9 rrcurveto
            -13 -2 9 -10 10 hhcurveto
            24 112 69 122 20 hvcurveto
            endchar
          </CharString>
          <CharString index="146">
            rmoveto
            20 4 -14 25 -47 hhcurveto
            -11 -48 -1 -37 -57 hvcurveto
            return
          </CharString>
          <CharString index="147">
            22 rmoveto
            20 3 -20 0 return
          </CharString>
          <CharString index="148">
            42 -36 42 350 42 return
          </CharString>
          <CharString index="149">
            216 callgsubr
            -33 -26 -27 -27 -5 127 callgsubr
            return
          </CharString>
          <CharString index="150">
            -29 0 -10 hhcurveto
            -328 hlineto
            -10 -29 0 -26 return
          </CharString>
          <CharString index="151">
            -43 -22 -35 -27 -7 -42 rrcurveto
            return
          </CharString>
          <CharString index="152">
            19 -55 callgsubr
            return
          </CharString>
          <CharString index="153">
            326 rmoveto
            15 3 -13 0 -7 hhcurveto
            -44 hlineto
            44 262 rlineto
            7 1 2 13 -15 hhcurveto
            -8 -4 -4 -7 -4 hvcurveto
            -13 -21 -21 -27 -27 -2 rrcurveto
            return
          </CharString>
          <CharString index="154">
            42 527 42 return
          </CharString>
          <CharString index="155">
            519 -21 49 45 hstem
            763 520 rmoveto
            53 9 -142 19 -75 hhcurveto
            -82 -141 -19 -53 -9 hvcurveto
            -9 -2 5 -13 18 hhcurveto
            25 2 17 9 13 hvcurveto
            16 32 76 7 54 hhcurveto
            53 77 -7 -16 26 hvcurveto
            -9 11 -4 -17 25 hhcurveto
            18 9 13 9 2 hvcurveto
            endchar
          </CharString>
          <CharString index="156">
            50 -1 40 hintmask 0000010000000000
            572 391 39 callsubr
            return
          </CharString>
          <CharString index="157">
            0 36 callgsubr
            return
          </CharString>
          <CharString index="158">
            138 callsubr
            -5 15 hhcurveto
            15 return
          </CharString>
          <CharString index="159">
            rlineto
            14 2 3 18 return
          </CharString>
          <CharString index="160">
            hstemhm
            148 51 hintmask 10100000
            500 213 rmoveto
            123 20 -76 98 -110 hhcurveto
            -110 -108 -98 -123 -20 hvcurveto
            -19 -113 58 -85 113 -20 -54 -39 -29 -40 -6 -38 93 callgsubr
            37 39 25 32 28 hvcurveto
            219 callgsubr
            rrcurveto
            return
          </CharString>
          <CharString index="161">
            42 341 42 return
          </CharString>
          <CharString index="162">
            -6 5 -13 -4 182 callgsubr
            8 49 42 47 47 26 84 11 100 85 20 119 rrcurveto
            -50 7 rmoveto
            -102 -17 -84 -82 -81 hhcurveto
            -82 -55 82 102 17 hvcurveto
            101 17 84 71 78 hhcurveto
            79 61 -71 -101 -17 hvcurveto
            return
          </CharString>
          <CharString index="163">
            rlineto
            140 hlineto
            113 87 88 91 15 hvcurveto
            -51 hmoveto
            -59 -10 -60 -77 -107 hhcurveto
            -120 hlineto
            return
          </CharString>
          <CharString index="164">
            -193 -154 rmoveto
            41 6 -20 26 -29 hhcurveto
            141 callsubr
            hintmask 1100010100000000
            -24 -4 15 -15 20 hhcurveto
            11 8 2 4 9 hvcurveto
            131 callgsubr
          </CharString>
          <CharString index="165">
            -19 -62 callsubr
            return
          </CharString>
          <CharString index="166">
            -69 -11 95 0 38 hhcurveto
            142 54 118 62 11 hvcurveto
            return
          </CharString>
          <CharString index="167">
            4 -29 hhcurveto
            -43 -46 -29 -44 -7 51 callsubr
            6 14 5 1 hvcurveto
            return
          </CharString>
          <CharString index="168">
            42 -36 54 callsubr
            return
          </CharString>
          <CharString index="169">
            22 -55 callgsubr
            return
          </CharString>
          <CharString index="170">
            43 4 -16 0 -14 hhcurveto
            -33 hlineto
            -11 -21 -65 callgsubr
            17 0 40 hhcurveto
            78 callsubr
            -40 -17 -84 callgsubr
            22 0 10 hhcurveto
            91 hlineto
            12 -47 callsubr
            217 callsubr
            33 196 rlineto
            return
          </CharString>
          <CharString index="171">
            -10 -12 -2 hvcurveto
            return
          </CharString>
          <CharString index="172">
            hlineto
            -12 44 callgsubr
            return
          </CharString>
          <CharString index="173">
            -10 -7 -7 -5 -5 hvcurveto
            -2 -4 -2 -4 -24 -35 rrcurveto
            return
          </CharString>
          <CharString index="174">
            hlineto
            86 callgsubr
            return
          </CharString>
          <CharString index="175">
            14 hhcurveto
            11 6 5 6 3 hvcurveto
            34 15 76 6 48 hhcurveto
            49 73 -6 -34 3 96 callgsubr
            return
          </CharString>
          <CharString index="176">
            rmoveto
            98 callgsubr
            return
          </CharString>
          <CharString index="177">
            4 -37 callgsubr
            return
          </CharString>
          <CharString index="178">
            2 -10 callsubr
            return
          </CharString>
          <CharString index="179">
            hlineto
            11 20 0 return
          </CharString>
          <CharString index="180">
            rmoveto
            14 -53 callgsubr
            -4 -9 -4 -2 -12 rlinecurve
            -7 -2 0 -24 20 hhcurveto
            0 5 0 3 95 callsubr
            9 rlinecurve
            endchar
          </CharString>
          <CharString index="181">
            -27 -23 12 22 4 hvcurveto
            23 return
          </CharString>
          <CharString index="182">
            -4 8 -26 hhcurveto
            return
          </CharString>
          <CharString index="183">
            -31 -23 -23 hhcurveto
            -23 -30 156 callgsubr
            return
          </CharString>
          <CharString index="184">
            0 21 3 hvcurveto
            21 4 return
          </CharString>
          <CharString index="185">
            -57 -341 rlineto
            return
          </CharString>
          <CharString index="186">
            68 11 65 56 68 hhcurveto
            51 45 -26 -48 11 hvcurveto
            -12 -11 -5 -8 -2 -10 rrcurveto
            191 callsubr
            19 19 16 19 3 hvcurveto
            89 15 -71 66 -93 hhcurveto
            -97 -91 -79 -97 -16 hvcurveto
            return
          </CharString>
          <CharString index="187">
            107 111 82 118 20 hvcurveto
            -51 hmoveto
            -95 -16 -84 -63 -80 hhcurveto
            -72 -35 53 68 -11 hvcurveto
            -2 16 1 28 4 23 rrcurveto
            69 11 76 57 85 hhcurveto
            90 46 -74 -82 -13 hvcurveto
            endchar
          </CharString>
          <CharString index="188">
            hstemhm
            109 50 0 50 161 116 callsubr
            return
          </CharString>
          <CharString index="189">
            rmoveto
            41 7 -21 26 -29 hhcurveto
            141 callsubr
            return
          </CharString>
          <CharString index="190">
            33 callgsubr
            235 callgsubr
            return
          </CharString>
          <CharString index="191">
            hvcurveto
            18 3 23 18 25 hhcurveto
            22 return
          </CharString>
          <CharString index="192">
            15 hhcurveto
            13 8 return
          </CharString>
          <CharString index="193">
            rlineto
            -33 -85 callgsubr
            11 hhcurveto
            213 hlineto
            130 110 141 160 26 hvcurveto
            -50 hmoveto
            -127 -21 -87 -132 -121 hhcurveto
            -109 hlineto
            return
          </CharString>
          <CharString index="194">
            -40 -7 26 -48 58 hhcurveto
            return
          </CharString>
          <CharString index="195">
            223 callgsubr
            576 185 callsubr
            -447 144 callgsubr
            447 197 callsubr
          </CharString>
          <CharString index="196">
            -29 27 hvcurveto
            -10 return
          </CharString>
          <CharString index="197">
            -7 -45 66 callgsubr
            return
          </CharString>
          <CharString index="198">
            222 callgsubr
            -14 -19 -65 callgsubr
            return
          </CharString>
          <CharString index="199">
            53 callgsubr
            -36 42 return
          </CharString>
          <CharString index="200">
            -5 -4 rrcurveto
            -19 -16 -31 -23 return
          </CharString>
          <CharString index="201">
            -11 128 callsubr
            return
          </CharString>
          <CharString index="202">
            1 vhcurveto
            154 64 21 8 5 10 2 return
          </CharString>
          <CharString index="203">
            4 -20 -32 callsubr
            return
          </CharString>
          <CharString index="204">
            hstem
            534 306 rmoveto
            26 4 -31 -4 callgsubr
            -358 hlineto
            -11 -31 153 callgsubr
            27 0 9 hhcurveto
            370 hlineto
            9 27 193 callsubr
            return
          </CharString>
          <CharString index="205">
            134 callgsubr
            254 37 0 37 return
          </CharString>
          <CharString index="206">
            -49 54 -4 51 7 38 rrcurveto
            99 16 93 80 97 hhcurveto
            31 6 -2 -12 32 hvcurveto
            return
          </CharString>
          <CharString index="207">
            67 callgsubr
            hstemhm
            98 51 return
          </CharString>
          <CharString index="208">
            42 356 42 return
          </CharString>
          <CharString index="209">
            66 11 75 60 71 hhcurveto
            82 52 -80 -96 -16 hvcurveto
            endchar
          </CharString>
          <CharString index="210">
            21 -17 13 rrcurveto
            return
          </CharString>
          <CharString index="211">
            rmoveto
            23 4 -18 0 -13 hhcurveto
            -132 202 callgsubr
            131 hlineto
            12 45 callsubr
            endchar
          </CharString>
          <CharString index="212">
            rlineto
            9 1 5 29 -26 hhcurveto
            -26 -5 -29 -9 -1 hvcurveto
            return
          </CharString>
          <CharString index="213">
            -12 20 hhcurveto
            154 callgsubr
            return
          </CharString>
          <CharString index="214">
            179 callgsubr
            37 51 return
          </CharString>
          <CharString index="215">
            20 0 21 3 hvcurveto
            return
          </CharString>
          <CharString index="216">
            123 callgsubr
            hstemhm
            return
          </CharString>
          <CharString index="217">
            hvcurveto
            54 12 71 9 56 vhcurveto
            10 59 13 80 19 50 rrcurveto
            62 25 28 24 103 hhcurveto
            100 26 -21 -72 1 hvcurveto
            -54 -12 -71 -9 -56 vhcurveto
            return
          </CharString>
          <CharString index="218">
            532 301 rmoveto
            159 27 -58 151 -133 hhcurveto
            -213 30 callsubr
            11 hhcurveto
            33 hlineto
            return
          </CharString>
          <CharString index="219">
            112 51 81 51 37 51 146 51 return
          </CharString>
          <CharString index="220">
            hstemhm
            15 40 63 50 17 50 return
          </CharString>
          <CharString index="221">
            42 185 42 322 42 return
          </CharString>
          <CharString index="222">
            hlineto
            78 callsubr
            return
          </CharString>
          <CharString index="223">
            50 -41 50 0 50 return
          </CharString>
          <CharString index="224">
            38 230 rlineto
            return
          </CharString>
          <CharString index="225">
            -14 -24 -4 hvcurveto
            -31 -5 7 -65 122 hhcurveto
            132 143 126 197 33 hvcurveto
            -47 80 rmoveto
            -62 -10 -71 -64 -92 hhcurveto
            return
          </CharString>
          <CharString index="226">
            21 -24 callsubr
            -19 callsubr
            return
          </CharString>
          <CharString index="227">
            124 105 85 96 16 hvcurveto
            -15 296 rmoveto
            -64 -11 -76 -46 -82 hhcurveto
            -82 -60 48 62 11 hvcurveto
            58 9 72 56 88 hhcurveto
            return
          </CharString>
          <CharString index="228">
            379 370 rmoveto
            32 5 132 callsubr
            -5 22 -23 28 hhcurveto
            33 26 27 27 5 hvcurveto
            return
          </CharString>
          <CharString index="229">
            -21 283 -20 hstem
            return
          </CharString>
          <CharString index="230">
            0 vvcurveto
            20 8 return
          </CharString>
          <CharString index="231">
            -48 -8 34 -37 49 hhcurveto
            58 60 23 51 40 hvcurveto
            -38 44 43 -36 44 hhcurveto
            69 51 74 76 12 hvcurveto
            -303 -48 rmoveto
            return
          </CharString>
          <CharString index="232">
            24 21 18 23 4 hvcurveto
            93 -460 rmoveto
            26 4 -17 12 -17 hhcurveto
            -17 -20 -13 -23 -4 hvcurveto
            -1 -8 -1 -9 10 -13 return
          </CharString>
          <CharString index="233">
            -236 43 0 43 533 42 return
          </CharString>
          <CharString index="234">
            3 17 99 callgsubr
            return
          </CharString>
          <CharString index="235">
            42 538 42 return
          </CharString>
          <CharString index="236">
            -36 -214 rlineto
            -44 hlineto
            -7 -13 0 -15 -3 hvcurveto
            -14 -2 13 0 7 hhcurveto
            121 hlineto
            7 13 0 14 2 hvcurveto
            return
          </CharString>
          <CharString index="237">
            131 callsubr
            -24 -4 15 -15 20 hhcurveto
            11 8 2 4 9 hvcurveto
            return
          </CharString>
          <CharString index="238">
            151 callsubr
            141 callsubr
            return
          </CharString>
          <CharString index="239">
            221 callgsubr
            -33 -27 -27 -27 -4 hvcurveto
            -32 return
          </CharString>
          <CharString index="240">
            -29 153 callgsubr
            29 0 return
          </CharString>
          <CharString index="241">
            10 10 8 10 1 hvcurveto
            return
          </CharString>
          <CharString index="242">
            -10 -1 6 -8 11 hhcurveto
            return
          </CharString>
          <CharString index="243">
            -10 198 callsubr
            return
          </CharString>
          <CharString index="244">
            -207 83 118 return
          </CharString>
          <CharString index="245">
            hvcurveto
            -14 -2 4 return
          </CharString>
          <CharString index="246">
            19 3 16 109 -81 hhcurveto
            -29 -41 -12 -52 -46 hvcurveto
            47 -13 -22 17 -30 hhcurveto
            -31 -28 -13 -36 -45 hvcurveto
            return
          </CharString>
          <CharString index="247">
            hlineto
            139 callgsubr
            return
          </CharString>
          <CharString index="248">
            -24 -18 -17 -20 -3 hvcurveto
            return
          </CharString>
          <CharString index="249">
            100 callsubr
            37 51 return
          </CharString>
          <CharString index="250">
            167 callsubr
            125 50 6 51 return
          </CharString>
          <CharString index="251">
            rmoveto
            148 callsubr
            return
          </CharString>
          <CharString index="252">
            rmoveto
            4 21 -8 103 callsubr
            return
          </CharString>
          <CharString index="253">
            -39 -231 rlineto
            return
          </CharString>
          <CharString index="254">
            569 rmoveto
            73 12 -25 55 -46 hhcurveto
            -46 -42 -57 -70 -12 hvcurveto
            -74 -12 25 -55 45 hhcurveto
            return
          </CharString>
          <CharString index="255">
            23 26 callsubr
            -23 -4 hvcurveto
            return
          </CharString>
          <CharString index="256">
            40 callgsubr
            139 -20 hstemhm
            return
          </CharString>
          <CharString index="257">
            96 callgsubr
            10 return
          </CharString>
          <CharString index="258">
            -143 rmoveto
            41 6 -20 26 -29 hhcurveto
            return
          </CharString>
          <CharString index="259">
            12 2 hvcurveto
            12 2 -9 10 -12 hhcurveto
            return
          </CharString>
          <CharString index="260">
            -236 43 576 42 return
          </CharString>
          <CharString index="261">
            12 2 -8 10 -12 hhcurveto
            return
          </CharString>
          <CharString index="262">
            -46 -275 rlineto
            return
          </CharString>
          <CharString index="263" raw="1">
            1bfb1906 0b  
          </CharString>
          <CharString index="264">
            hintmask 1000000010000000
            -7 callsubr
            return
          </CharString>
          <CharString index="265">
            6 callsubr
            16 0 49 hhcurveto
            -74 -43 -28 -34 -7 -45 rrcurveto
            return
          </CharString>
          <CharString index="266">
            -58 callsubr
            -20 0 return
          </CharString>
          <CharString index="267">
            31 callsubr
            endchar
          </CharString>
          <CharString index="268">
            208 callgsubr
            -4 hvcurveto
            return
          </CharString>
          <CharString index="269">
            175 callsubr
            138 42 return
          </CharString>
          <CharString index="270">
            4 4 6 hvcurveto
            32 39 33 return
          </CharString>
          <CharString index="271">
            hvcurveto
            -10 -59 -48 -21 -29 -9 return
          </CharString>
          <CharString index="272">
            -21 118 -20 return
          </CharString>
          <CharString index="273">
            33 6 -25 42 -40 hhcurveto
            -47 -34 -41 -35 -6 hvcurveto
            -31 -5 17 -42 46 hhcurveto
            return
          </CharString>
          <CharString index="274">
            169 callsubr
            -15 50 return
          </CharString>
          <CharString index="275">
            rmoveto
            91 15 -58 88 -112 hhcurveto
            return
          </CharString>
          <CharString index="276">
            hstemhm
            118 50 0 51 return
          </CharString>
          <CharString index="277">
            hlineto
            -42 -143 rlineto
            -13 -2 8 -13 16 hhcurveto
            21 8 24 10 4 hvcurveto
            return
          </CharString>
          <CharString index="278">
            10 12 vvcurveto
            -3 97 4 28 5 36 rrcurveto
            32 12 -1 -6 24 hvcurveto
            -6 return
          </CharString>
          <CharString index="279">
            -49 callsubr
            21 3 -19 0 return
          </CharString>
          <CharString index="280">
            480 102 rmoveto
            19 return
          </CharString>
          <CharString index="281">
            -30 hvcurveto
            -183 -30 return
          </CharString>
          <CharString index="282">
            42 347 42 return
          </CharString>
          <CharString index="283">
            hlineto
            -6 -6 -5 -6 -3 hvcurveto
            -7 -17 rlineto
            -8 -3 4 -8 9 hhcurveto
            return
          </CharString>
          <CharString index="284">
            hhcurveto
            23 hlineto
            52 17 -36 -27 -4 hvcurveto
            -33 -6 -34 -31 -44 hhcurveto
            -50 return
          </CharString>
          <CharString index="285">
            21 rmoveto
            21 3 return
          </CharString>
          <CharString index="286">
            -14 -14 -13 -14 return
          </CharString>
          <CharString index="287">
            66 callgsubr
            5 6 return
          </CharString>
          <CharString index="288">
            rlineto
            -56 hlineto
            -12 -20 0 -22 -4 hvcurveto
            -21 136 callgsubr
            return
          </CharString>
          <CharString index="289">
            201 callgsubr
            endchar
          </CharString>
          <CharString index="290">
            rlineto
            -9 -2 -4 -29 26 hhcurveto
            26 4 29 9 2 hvcurveto
            endchar
          </CharString>
          <CharString index="291">
            -74 callsubr
            20 0 11 hhcurveto
            return
          </CharString>
          <CharString index="292">
            189 callsubr
            -10 hhcurveto
            return
          </CharString>
          <CharString index="293">
            37 70 37 138 -20 hstemhm
            return
          </CharString>
          <CharString index="294">
            94 callsubr
            83 -21 return
          </CharString>
          <CharString index="295">
            73 216 callsubr
            return
          </CharString>
          <CharString index="296">
            306 rmoveto
            26 4 -29 0 return
          </CharString>
          <CharString index="297">
            23 -20 callgsubr
            return
          </CharString>
          <CharString index="298">
            -19 -3 13 -16 19 hhcurveto
            return
          </CharString>
          <CharString index="299">
            -12 210 callgsubr
            return
          </CharString>
          <CharString index="300">
            0 26 4 hvcurveto
            return
          </CharString>
          <CharString index="301">
            42 81 callsubr
            return
          </CharString>
          <CharString index="302">
            518 21 rmoveto
            217 callsubr
            44 261 rlineto
            return
          </CharString>
          <CharString index="303">
            88 -54 120 hhcurveto
            129 99 89 92 15 hvcurveto
            endchar
          </CharString>
          <CharString index="304">
            188 callgsubr
            endchar
          </CharString>
          <CharString index="305">
            -12 -2 hvcurveto
            -10 return
          </CharString>
          <CharString index="306">
            19 0 13 hhcurveto
            return
          </CharString>
          <CharString index="307">
            -7 7 -13 -6 93 callsubr
            -23 hhcurveto
            return
          </CharString>
          <CharString index="308">
            -25 -5 17 -13 17 hhcurveto
            17 21 14 22 3 hvcurveto
            2 return
          </CharString>
          <CharString index="309">
            -20 212 callsubr
            return
          </CharString>
          <CharString index="310">
            60 callgsubr
            -3 199 callsubr
            return
          </CharString>
          <CharString index="311">
            rrcurveto
            13 -32 -14 4 -17 hhcurveto
            -60 -65 -31 -56 -10 hvcurveto
            return
          </CharString>
          <CharString index="312">
            0 162 callsubr
            return
          </CharString>
          <CharString index="313">
            -4 42 167 42 136 42 return
          </CharString>
          <CharString index="314">
            72 hstemhm
            242 72 129 72 return
          </CharString>
          <CharString index="315">
            50 -43 50 -34 50 return
          </CharString>
          <CharString index="316">
            21 0 20 3 hvcurveto
            return
          </CharString>
          <CharString index="317">
            16 rrcurveto
            23 4 -17 13 -17 hhcurveto
            -12 -25 -8 -32 return
          </CharString>
          <CharString index="318">
            503 rmoveto
            33 callsubr
            -3 8 -27 hhcurveto
            return
          </CharString>
          <CharString index="319">
            113 callsubr
            153 50 -1 40 return
          </CharString>
          <CharString index="320">
            -9 -6 -25 hvcurveto
            -1 -4 -31 -5 -33 hhcurveto
            8 43 return
          </CharString>
          <CharString index="321">
            -38 -22 -45 -13 -42 hhcurveto
            -20 -15 16 18 3 hvcurveto
            return
          </CharString>
          <CharString index="322">
            30 53 9 hvcurveto
            54 9 return
          </CharString>
          <CharString index="323">
            241 callgsubr
            99 72 return
          </CharString>
          <CharString index="324">
            21 3 -17 0 -40 hhcurveto
            return
          </CharString>
          <CharString index="325">
            rlineto
            120 hlineto
            107 34 return
          </CharString>
          <CharString index="326">
            -4 -2 -12 rlinecurve
            -6 -1 return
          </CharString>
          <CharString index="327">
            hstemhm
            194 82 return
          </CharString>
          <CharString index="328">
            hhcurveto
            328 hlineto
            return
          </CharString>
          <CharString index="329">
            98 51 37 51 return
          </CharString>
          <CharString index="330">
            70 callgsubr
            hintmask 11101010
            return
          </CharString>
          <CharString index="331">
            2 -79 callgsubr
            return
          </CharString>
          <CharString index="332">
            -7 -5 vvcurveto
            -13 -3 13 -17 13 hhcurveto
            8 18 return
          </CharString>
          <CharString index="333">
            -75 -64 -11 hvcurveto
            -68 -11 -73 -71 -101 hhcurveto
            -44 return
          </CharString>
          <CharString index="334">
            345 340 rmoveto
            23 4 -15 18 -24 hhcurveto
            return
          </CharString>
          <CharString index="335">
            -60 96 -116 hhcurveto
            -34 -45 -6 -30 -61 hvcurveto
            return
          </CharString>
          <CharString index="336">
            hstemhm
            112 callsubr
            return
          </CharString>
          <CharString index="337">
            72 callgsubr
            92 109 callsubr
            return
          </CharString>
          <CharString index="338">
            -21 108 76 -42 42 hstemhm
            return
          </CharString>
          <CharString index="339">
            hstemhm
            68 37 0 37 14 37 return
          </CharString>
          <CharString index="340">
            32 rmoveto
            16 92 rlineto
            return
          </CharString>
          <CharString index="341">
            -18 -23 -4 hvcurveto
            return
          </CharString>
          <CharString index="342">
            45 51 -20 hstemhm
            return
          </CharString>
          <CharString index="343">
            -13 5 -9 rlinecurve
            4 -9 12 -3 11 7 return
          </CharString>
          <CharString index="344">
            -65 callgsubr
            20 0 11 hhcurveto
            return
          </CharString>
          <CharString index="345">
            rlineto
            157 hlineto
            9 193 callgsubr
            return
          </CharString>
          <CharString index="346">
            10 1 8 rlinecurve
            return
          </CharString>
          <CharString index="347">
            hhcurveto
            -25 -3 -16 return
          </CharString>
          <CharString index="348">
            -4 hvcurveto
            -26 -4 return
          </CharString>
        <CharString name=".notdef">
          173 endchar
        </CharString>
        <CharString name="A">
          27 callgsubr
          hstem
          -107 callgsubr
          endchar
        </CharString>
        <CharString name="AE">
          -35 callsubr
        </CharString>
        <CharString name="AE.dup">
          -35 callsubr
        </CharString>
        <CharString name="AEacute">
          0 42 147 43 64 157 callgsubr
          83 165 callsubr
          hstemhm
          80 38 119 38 -6 37 -31 37 -37 38 -32 38 50 38 59 38 -24 38 -21 38 0 37 hintmask 000000000000001000000000
          502 233 callsubr
          hintmask 000000000000010000000000
          11 2 3 21 -19 hhcurveto
          hintmask 000000000000001000000000
          -19 -3 -21 -11 -2 hvcurveto
          hintmask 101000000001010000000000
          -14 -82 rlineto
          -147 hlineto
          42 254 rlineto
          129 72 callsubr
          20 4 hvcurveto
          hintmask 001100000000100100000000
          22 3 -37 callsubr
          -129 hlineto
          39 231 rlineto
          139 hlineto
          -11 -66 rlineto
          -10 -2 -3 -22 19 hhcurveto
          hintmask 000100001000000010000000
          18 3 22 10 2 hvcurveto
          33 callsubr
          -3 8 -27 hhcurveto
          -290 161 callsubr
          hintmask 110100100100000000000000
          -21 -3 19 0 25 hhcurveto
          -195 -527 rlineto
          -29 44 callgsubr
          74 159 callsubr
          -30 hhcurveto
          55 147 rlineto
          hintmask 010000001000000000000000
          133 hlineto
          hintmask 110000010001010000000000
          -25 -147 rlineto
          -20 160 callgsubr
          201 hlineto
          25 7 7 25 4 hvcurveto
          -189 200 rmoveto
          -125 hlineto
          hintmask 000100000100100000000000
          124 337 rlineto
          57 hlineto
          hintmask 010000000010000000000000
          hintmask 000011000001000000000000
          120 196 -104 callsubr
        </CharString>
        <CharString name="Aacute">
          27 callgsubr
          71 165 callsubr
          hstemhm
          hintmask 11100000
          -107 callgsubr
          hintmask 00011000
          126 184 -104 callsubr
        </CharString>
        <CharString name="Abreve">
          27 callgsubr
          50 235 callsubr
          hintmask 11100000
          -107 callgsubr
          hintmask 00011000
          196 166 -89 callsubr
          endchar
        </CharString>
        <CharString name="Abreveacute">
          27 callgsubr
          50 45 189 -20 hstemhm
          hintmask 11100000
          -107 callgsubr
          hintmask 00011000
          196 166 -89 callsubr
          -50 134 rmoveto
          15 2 -9 11 -15 hhcurveto
          0 -6 0 -10 -4 vhcurveto
          177 callgsubr
          167 callgsubr
        </CharString>
        <CharString name="Abrevedotbelow">
          -207 83 124 16 callsubr
          50 45 51 -20 220 callsubr
          hintmask 01111100
          -107 callgsubr
          196 166 -89 callsubr
          hintmask 10000010
          -283 -912 -98 callgsubr
        </CharString>
        <CharString name="Abrevegrave">
          27 callgsubr
          50 235 callsubr
          hintmask 11100000
          -107 callgsubr
          hintmask 00011000
          196 166 -89 callsubr
          -60 73 rmoveto
          -6 -1 -9 -25 -20 hhcurveto
          0 -4 1 -2 1 vhcurveto
          -134 64 -17 8 -3 240 callgsubr
          15 2 0 callsubr
          9 -4 -2 -12 rlinecurve
          endchar
        </CharString>
        <CharString name="Abrevehookabove">
          27 callgsubr
          50 45 51 68 callgsubr
          324 142 callgsubr
          hintmask 1110001000100000
          -107 callgsubr
          hintmask 0001100000100000
          196 166 -12 callsubr
        </CharString>
        <CharString name="Abrevetilde">
          27 callgsubr
          50 45 91 9 callgsubr
          hintmask 00011100
          196 166 -66 callsubr
        </CharString>
        <CharString name="Acaron">
          27 callgsubr
          127 -20 hstemhm
          hintmask 11100000
          -107 callgsubr
          hintmask 00010000
          163 147 -97 callgsubr
        </CharString>
        <CharString name="Acircumflex">
          27 callgsubr
          61 -21 hstemhm
          hintmask 11100000
          -107 callgsubr
          hintmask 00010000
          156 104 -106 callgsubr
          endchar
        </CharString>
        <CharString name="Acircumflexacute">
          27 callgsubr
          61 -21 224 -20 hstemhm
          hintmask 11100000
          -107 callgsubr
          hintmask 00011000
          156 104 -106 callgsubr
          -15 176 -104 callsubr
        </CharString>
        <CharString name="Acircumflexdotbelow">
          -207 83 124 16 callsubr
          61 -21 220 callsubr
          hintmask 01111000
          -107 callgsubr
          156 104 -106 callgsubr
          hintmask 10000100
          -243 -850 -98 callgsubr
        </CharString>
        <CharString name="Acircumflexgrave">
          27 callgsubr
          61 -21 hstemhm
          hintmask 11100000
          -107 callgsubr
          hintmask 00010000
          156 104 -106 callgsubr
          -25 115 rmoveto
          -6 -1 -8 -25 -20 hhcurveto
          0 -5 1 -2 1 vhcurveto
          -133 64 -18 8 -2 239 callsubr
          15 3 0 callsubr
          8 -4 -2 -12 rlinecurve
          endchar
        </CharString>
        <CharString name="Acircumflexhookabove">
          27 callgsubr
          40 37 -30 37 42 68 callgsubr
          374 37 0 78 callgsubr
          24 37 -1 39 hintmask 1110000000000000
          -107 callgsubr
          hintmask 0000100100000000
          156 104 -58 callgsubr
        </CharString>
        <CharString name="Acircumflextilde">
          27 callgsubr
          61 -21 37 47 42 9 callgsubr
          hintmask 00011110
          156 104 -106 callgsubr
          59 184 -107 callsubr
          16 85 callsubr
          -9 -54 callgsubr
          15 17 25 hvcurveto
          20 13 33 22 2 13 rrcurveto
          endchar
        </CharString>
        <CharString name="Adblgrave">
          27 callgsubr
          71 233 callgsubr
          hintmask 11100000
          -107 callgsubr
          hintmask 00011000
          153 122 -76 callsubr
        </CharString>
        <CharString name="Adieresis">
          27 callgsubr
          40 207 callsubr
          hintmask 11100000
          -107 callgsubr
          hintmask 00011100
          -49 118 -95 callgsubr
          endchar
        </CharString>
        <CharString name="Adotbelow">
          -207 83 124 16 callsubr
          220 callsubr
          hintmask 01110000
          -107 callgsubr
          hintmask 10001000
          -87 -746 -98 callgsubr
        </CharString>
        <CharString name="Agrave">
          27 callgsubr
          71 165 callsubr
          hstemhm
          hintmask 11100000
          -107 callgsubr
          hintmask 00011000
          115 123 rmoveto
          -79 callsubr
        </CharString>
        <CharString name="Ahookabove">
          27 callgsubr
          51 68 callgsubr
          307 115 callgsubr
          hintmask 1110000100000000
          -107 callgsubr
          hintmask 0000110010000000
          128 238 -68 callsubr
          hintmask 0001000100000000
          44 callsubr
          hintmask 0000001000000000
          -4 -19 rlineto
          hintmask 0001000010000000
          135 callsubr
          hintmask 0000001000000000
          134 callsubr
          hintmask 0001000100000000
          12 callsubr
        </CharString>
        <CharString name="Alpha">
          27 callgsubr
          hstem
          -107 callgsubr
          endchar
        </CharString>
        <CharString name="Amacron">
          27 callgsubr
          60 44 hstemhm
          hintmask 11100000
          -107 callgsubr
          hintmask 00010000
          202 123 -41 callgsubr
        </CharString>
        <CharString name="Aogonek">
          110 callgsubr
          133 16 callsubr
          hstemhm
          315 40 -29 40 93 40 hintmask 00101010
          499 21 rmoveto
          1 9 -2 7 -9 4 rrcurveto
          1 -6 -20 0 -21 hhcurveto
          -35 549 rlineto
          32 -3 -12 0 -26 hhcurveto
          hintmask 00110100
          -24 -14 0 -31 -13 hvcurveto
          -219 -550 rlineto
          -21 -21 0 -1 -6 hvcurveto
          -9 -4 -5 -7 -1 -9 rrcurveto
          -21 -4 22 0 12 hhcurveto
          106 hlineto
          14 45 callsubr
          21 3 -18 0 -42 hhcurveto
          50 129 rlineto
          184 hlineto
          6 -129 rlineto
          hintmask 00100010
          158 callsubr
          hintmask 10000101
          100 callgsubr
          hintmask 01111101
          59 callgsubr
          -30 156 callgsubr
          8 48 46 40 67 36 rrcurveto
          24 -8 0 6 hhcurveto
          13 62 callsubr
          -120 192 rmoveto
          -162 hlineto
          138 368 rlineto
          7 hlineto
          endchar
        </CharString>
        <CharString name="Aogonekacute">
          110 callgsubr
          133 16 callsubr
          71 165 callsubr
          hstemhm
          315 40 -29 40 93 40 hintmask 0010100010000000
          499 21 rmoveto
          1 9 -2 7 -9 4 rrcurveto
          1 -6 -20 0 -21 hhcurveto
          -35 549 rlineto
          32 -3 -12 0 -26 hhcurveto
          hintmask 0011000100000000
          -24 -14 0 -31 -13 hvcurveto
          -219 -550 rlineto
          -21 -21 0 -1 -6 hvcurveto
          -9 -4 -5 -7 -1 -9 rrcurveto
          -21 -4 22 0 12 hhcurveto
          106 hlineto
          14 45 callsubr
          21 3 -18 0 -42 hhcurveto
          50 129 rlineto
          184 hlineto
          6 -129 rlineto
          hintmask 0010000010000000
          158 callsubr
          hintmask 1000000101000000
          100 callgsubr
          hintmask 0111100101000000
          59 callgsubr
          -30 156 callgsubr
          8 48 46 40 67 36 rrcurveto
          24 -8 0 6 hhcurveto
          13 62 callsubr
          -120 192 rmoveto
          -162 hlineto
          138 368 rlineto
          7 hlineto
          hintmask 0000011000000000
          127 184 -104 callsubr
        </CharString>
        <CharString name="Aring">
          27 callgsubr
          0 37 70 37 hstemhm
          277 50 104 50 hintmask 11100000
          -107 callgsubr
          hintmask 00011110
          68 113 75 callgsubr
          -13 callsubr
          endchar
        </CharString>
        <CharString name="Aringacute">
          27 callgsubr
          0 186 callsubr
          277 50 -4 50 58 50 hintmask 1110000000000000
          -107 callgsubr
          hintmask 0001000100000000
          68 113 75 callgsubr
          hintmask 0010111010000000
          -13 callsubr
          27 185 200 callgsubr
          hintmask 0000000110000000
          -3 callgsubr
          -5 -10 219 callsubr
          0 -25 20 hhcurveto
          0 5 1 2 1 vhcurveto
          155 64 20 8 6 239 callsubr
          endchar
        </CharString>
        <CharString name="Atilde">
          27 callgsubr
          40 9 callgsubr
          hintmask 00011000
          195 162 -107 callsubr
          16 85 callsubr
          -9 -54 callgsubr
          15 17 25 hvcurveto
          20 13 33 22 2 13 rrcurveto
          endchar
        </CharString>
        <CharString name="B">
          -9 callgsubr
        </CharString>
        <CharString name="Beta">
          -9 callgsubr
        </CharString>
        <CharString name="C">
          45 callgsubr
          hstem
          187 callgsubr
          vstem
          -69 callsubr
          endchar
        </CharString>
        <CharString name="Cacute">
          226 callgsubr
          187 callgsubr
          hintmask 11001110
          -69 callsubr
          hintmask 00110000
          8 602 -104 callsubr
        </CharString>
        <CharString name="Ccaron">
          45 callgsubr
          128 -20 hstemhm
          187 callgsubr
          hintmask 11011100
          -69 callsubr
          hintmask 00100000
          45 565 -97 callgsubr
        </CharString>
        <CharString name="Ccedilla">
          -215 43 160 43 536 43 -30 42 hstemhm
          94 50 134 51 -47 51 0 50 -17 51 41 50 6 50 hintmask 0101100101100000
          508 163 rmoveto
          24 4 -18 0 -8 hhcurveto
          -6 -17 0 -20 -5 hvcurveto
          -109 -25 -96 -27 -45 hhcurveto
          -98 -77 113 162 27 hvcurveto
          161 27 116 113 96 hhcurveto
          66 53 -50 -90 hvcurveto
          -13 1 0 -12 21 hhcurveto
          26 3 16 16 3 hvcurveto
          23 143 rlineto
          12 2 4 20 -21 hhcurveto
          hintmask 0010000000100000
          66 callsubr
          hintmask 0101101000000000
          36 -36 -42 19 -50 hhcurveto
          -129 -133 -134 -182 -30 hvcurveto
          -30 -179 83 -132 135 -7 rrcurveto
          hintmask 1000010010000000
          -4 -23 -3 -16 -2 -16 23 -1 rlinecurve
          49 callgsubr
          13 81 -101 10 0 vvcurveto
          hintmask 0000000101000000
          4 24 50 7 109 61 16 100 rlinecurve
          endchar
        </CharString>
        <CharString name="Ccircumflex">
          45 callgsubr
          62 -21 hstemhm
          187 callgsubr
          hintmask 11011100
          -69 callsubr
          hintmask 00100000
          38 522 -106 callgsubr
          endchar
        </CharString>
        <CharString name="Cdotaccent">
          45 callgsubr
          52 83 hstemhm
          94 50 223 82 9 50 6 50 hintmask 11010110
          -69 callsubr
          hintmask 00101000
          -59 552 -14 callgsubr
        </CharString>
        <CharString name="Chi">
          -9 callsubr
        </CharString>
        <CharString name="D">
          40 callgsubr
          hstem
          93 51 37 51 250 50 vstem
          -40 callgsubr
          endchar
        </CharString>
        <CharString name="Dcaron">
          149 callsubr
          93 51 37 51 250 50 hintmask 11011100
          -40 callgsubr
          hintmask 00100000
          -19 427 -97 callgsubr
        </CharString>
        <CharString name="Dcroat">
          -17 callgsubr
        </CharString>
        <CharString name="Ddotbelow">
          61 callgsubr
          hstemhm
          93 51 -13 82 -32 51 250 50 hintmask 01110110
          -40 callgsubr
          hintmask 10001000
          -269 -466 -98 callgsubr
        </CharString>
        <CharString name="Delta">
          0 49 532 42 hstem
          489 12 rmoveto
          1 vlineto
          -81 580 rlineto
          28 -4 -10 2 -28 hhcurveto
          -19 -20 0 -26 -12 hvcurveto
          -276 -584 rlineto
          -1 vlineto
          -12 -2 15 0 10 hhcurveto
          400 hlineto
          10 15 0 12 2 hvcurveto
          -57 37 rmoveto
          -324 hlineto
          249 532 rlineto
          4 hlineto
          endchar
        </CharString>
        <CharString name="Dlinebelow">
          -172 44 128 47 callsubr
          hstemhm
          93 51 37 51 250 50 hintmask 01111100
          -40 callgsubr
          hintmask 10000000
          -122 -452 -72 callsubr
        </CharString>
        <CharString name="E">
          50 callsubr
          17 callgsubr
          hintmask 11010010
          -93 callsubr
          hintmask 01101100
          -64 callgsubr
          hintmask 00100010
          274 hlineto
          hintmask 10111001
          -102 callsubr
          endchar
        </CharString>
        <CharString name="Eacute">
          50 callsubr
          83 165 callsubr
          -81 callgsubr
          -16 733 -104 callsubr
        </CharString>
        <CharString name="Ebreve">
          50 callsubr
          62 45 51 -20 -81 callsubr
          hintmask 0001100010000000
          54 715 -89 callsubr
          endchar
        </CharString>
        <CharString name="Ecaron">
          50 callsubr
          139 -20 17 callgsubr
          hintmask 1100100100000000
          -93 callsubr
          hintmask 0110011000000000
          -64 callgsubr
          hintmask 0010000100000000
          274 hlineto
          hintmask 1010110010000000
          -102 callsubr
          hintmask 0001000000000000
          21 696 -97 callgsubr
        </CharString>
        <CharString name="Ecircumflex">
          50 callsubr
          73 -21 17 callgsubr
          hintmask 1100100100000000
          -93 callsubr
          hintmask 0110011000000000
          -64 callgsubr
          hintmask 0010000100000000
          274 hlineto
          hintmask 1010110010000000
          -102 callsubr
          hintmask 0001000000000000
          14 653 -106 callgsubr
          endchar
        </CharString>
        <CharString name="Ecircumflexacute">
          50 callsubr
          73 -21 224 -20 -81 callgsubr
          14 653 -106 callgsubr
          -15 176 -104 callsubr
        </CharString>
        <CharString name="Ecircumflexdotbelow">
          -207 83 124 36 callgsubr
          73 -21 hstemhm
          109 50 35 82 -79 50 173 50 0 51 -11 51 hintmask 0110010001000000
          -93 callsubr
          hintmask 0011000110000000
          -64 callgsubr
          hintmask 0001000001000000
          274 hlineto
          hintmask 0101110100100000
          -102 callsubr
          14 653 -106 callgsubr
          hintmask 1000001000000000
          -243 -850 -98 callgsubr
        </CharString>
        <CharString name="Ecircumflexgrave">
          50 callsubr
          73 -21 17 callgsubr
          hintmask 1100100100000000
          -93 callsubr
          hintmask 0110011000000000
          -64 callgsubr
          hintmask 0010000100000000
          274 hlineto
          hintmask 1010110010000000
          -102 callsubr
          hintmask 0001000000000000
          14 653 -106 callgsubr
          -25 115 rmoveto
          -6 -1 -8 -25 -20 hhcurveto
          0 -5 1 -2 1 vhcurveto
          -133 64 -18 8 -2 239 callsubr
          15 3 0 callsubr
          8 -4 -2 -12 rlinecurve
          endchar
        </CharString>
        <CharString name="Ecircumflexhookabove">
          50 callsubr
          52 37 -30 37 42 68 callgsubr
          109 50 38 50 127 37 0 39 -30 50 -15 37 -34 37 -25 51 -11 51 -42 37 -1 39 hintmask 110000010100001000000000
          -93 callsubr
          hintmask 011000001001000000000000
          -64 callgsubr
          hintmask 001000000000001000000000
          274 hlineto
          hintmask 101000011000000100000000
          -102 callsubr
          hintmask 000010000100000000000000
          14 653 rmoveto
          1 8 -7 9 -12 5 -101 40 rcurveline
          -8 3 -8 0 -10 -3 -115 -40 rcurveline
          -14 -5 -11 -9 -1 -8 rrcurveto
          hintmask 000100000000000000000000
          -38 callsubr
          hintmask 000010000000000000000000
          6 15 4 3 11 hvcurveto
          hintmask 000100000000000000000000
          94 30 rlineto
          hintmask 000010000000000000000000
          84 -30 rlineto
          hintmask 000100100100000010000000
          -43 callsubr
          hintmask 000001100010010010000000
          -48 callsubr
          3 47 callgsubr
          -5 -9 -8 -5 vhcurveto
          44 callsubr
          hintmask 000001000000100000000000
          -45 callgsubr
          hintmask 000001000000010001000000
          175 callgsubr
          18 21 39 4 callgsubr
        </CharString>
        <CharString name="Ecircumflextilde">
          50 callsubr
          73 -21 37 47 42 46 10 47 17 callgsubr
          hintmask 1100000100100000
          -93 callsubr
          hintmask 0110000011000000
          -64 callgsubr
          hintmask 0010000000100000
          274 hlineto
          hintmask 1010000110010000
          -102 callsubr
          hintmask 0001111000000000
          14 653 -106 callgsubr
          59 184 -107 callsubr
          16 85 callsubr
          -9 -54 callgsubr
          15 17 25 hvcurveto
          20 13 33 22 2 13 rrcurveto
          endchar
        </CharString>
        <CharString name="Edblgrave">
          50 callsubr
          83 -21 125 -20 -81 callgsubr
          40 671 -76 callsubr
        </CharString>
        <CharString name="Edieresis">
          50 callsubr
          52 72 hstemhm
          109 50 38 50 -5 72 106 50 -27 72 -45 51 -11 51 hintmask 1100100001000000
          -93 callsubr
          hintmask 0110010100000000
          -64 callgsubr
          hintmask 0010000001000000
          274 hlineto
          hintmask 1010110000100000
          -102 callsubr
          hintmask 0001001010000000
          -191 667 -95 callgsubr
          endchar
        </CharString>
        <CharString name="Edotaccent">
          50 callsubr
          63 83 hstemhm
          109 50 38 50 94 82 -3 50 0 51 -11 51 hintmask 1100100010000000
          -93 callsubr
          hintmask 0110010100000000
          -8 callgsubr
          hintmask 1010110001000000
          -102 callsubr
          hintmask 0001001000000000
          -82 683 -14 callgsubr
        </CharString>
        <CharString name="Edotbelow">
          -207 83 124 36 callgsubr
          hstemhm
          109 50 35 82 -79 50 173 50 0 51 -11 51 hintmask 0110100010000000
          -93 callsubr
          hintmask 0011001100000000
          -64 callgsubr
          hintmask 0001000010000000
          274 hlineto
          hintmask 0101101001000000
          -102 callsubr
          hintmask 1000010000000000
          -229 -197 -98 callgsubr
        </CharString>
        <CharString name="Egrave">
          50 callsubr
          83 165 callsubr
          -81 callgsubr
          -27 672 rmoveto
          -79 callsubr
        </CharString>
        <CharString name="Ehookabove">
          50 callsubr
          63 68 callgsubr
          109 50 38 50 60 115 callgsubr
          16 50 0 51 -11 51 hintmask 1100010000101000
          -93 callsubr
          hintmask 0110001000010000
          -64 callgsubr
          hintmask 0010000000001000
          274 hlineto
          hintmask 1010011000000100
          -102 callsubr
          hintmask 0000100100110000
          -14 787 -68 callsubr
          hintmask 0001000001000000
          44 callsubr
          hintmask 0000000010000000
          -4 -19 rlineto
          hintmask 0001000000100000
          135 callsubr
          hintmask 0000000010000000
          134 callsubr
          hintmask 0001000001000000
          12 callsubr
        </CharString>
        <CharString name="Emacron">
          50 callsubr
          72 44 17 callgsubr
          hintmask 1100100100000000
          -93 callsubr
          hintmask 0110011000000000
          -64 callgsubr
          hintmask 0010000100000000
          274 hlineto
          hintmask 1010110010000000
          -102 callsubr
          hintmask 0001000000000000
          60 672 -41 callgsubr
        </CharString>
        <CharString name="Eng">
          -11 70 -59 47 callsubr
          -40 51 hstemhm
          109 50 0 50 278 51 hintmask 00010000
          538 306 rmoveto
          156 26 -33 160 -137 hhcurveto
          -47 -44 -18 -47 -58 hvcurveto
          hintmask 01101000
          46 8 -4 8 -26 -97 callsubr
          -88 -527 18 callsubr
          hintmask 01010110
          164 159 callsubr
          -12 hhcurveto
          -56 hlineto
          65 391 rlineto
          76 22 65 62 74 hhcurveto
          110 14 -136 -129 -22 hvcurveto
          -17 -101 -23 -120 -59 -38 rrcurveto
          hintmask 10000010
          10 -9 -8 2 -8 hhcurveto
          -19 -19 -16 -19 -3 hvcurveto
          191 callsubr
          127 35 168 149 25 hvcurveto
          endchar
        </CharString>
        <CharString name="Eogonek">
          110 callgsubr
          133 36 callgsubr
          hstemhm
          459 51 -40 40 -40 51 cntrmask 00000111
          hintmask 10111111
          -93 callsubr
          -64 callgsubr
          274 32 callgsubr
          50 callgsubr
          -386 hlineto
          -11 -21 -65 callgsubr
          21 0 11 hhcurveto
          42 -36 callsubr
          -42 -85 callgsubr
          11 221 callsubr
          -74 -43 -29 -34 -7 -45 rrcurveto
          100 callgsubr
          hintmask 01100111
          59 callgsubr
          -30 156 callgsubr
          8 48 47 40 67 36 rrcurveto
          30 hlineto
          25 7 7 25 4 hvcurveto
          endchar
        </CharString>
        <CharString name="Eogonekacute">
          110 callgsubr
          133 36 callgsubr
          83 165 callsubr
          hstemhm
          109 50 38 50 141 51 -19 40 -1 51 -40 40 11 40 hintmask 0011100110101100
          -93 callsubr
          -64 callgsubr
          274 32 callgsubr
          50 callgsubr
          -386 hlineto
          -11 -21 -65 callgsubr
          21 0 11 hhcurveto
          42 -36 callsubr
          -42 -85 callgsubr
          11 hhcurveto
          hintmask 1010000001010000
          328 hlineto
          -74 -43 -29 -34 -7 -45 rrcurveto
          -40 -7 26 -48 58 163 callgsubr
          hintmask 0100000000100000
          219 callgsubr
          59 callgsubr
          -30 156 callgsubr
          hintmask 0010000001000000
          8 48 47 40 67 36 rrcurveto
          30 hlineto
          25 7 7 25 4 hvcurveto
          hintmask 0000011000000000
          -16 733 -104 callsubr
        </CharString>
        <CharString name="Epsilon">
          50 callsubr
          17 callgsubr
          hintmask 11010010
          -93 callsubr
          hintmask 01101100
          -64 callgsubr
          hintmask 00100010
          274 hlineto
          hintmask 10111001
          -102 callsubr
          endchar
        </CharString>
        <CharString name="Ereversed">
          50 callsubr
          hstemhm
          49 51 35 51 -2 50 149 50 -8 50 -4 50 hintmask 1000000100000000
          504 178 callsubr
          -20 -32 callsubr
          hintmask 1010011010000000
          -42 67 callsubr
          42 hlineto
          11 21 0 21 3 hvcurveto
          37 callsubr
          -386 hlineto
          -26 -6 -8 -24 -4 hvcurveto
          hintmask 0110100010000000
          -13 -76 rlineto
          -15 -3 -2 -17 26 hhcurveto
          25 3 18 14 2 hvcurveto
          11 66 rlineto
          274 hlineto
          146 callsubr
          -157 hlineto
          44 8 2 15 -25 hhcurveto
          -25 -3 -18 -14 -2 hvcurveto
          -16 -96 rlineto
          hintmask 0100010100000000
          -15 -3 -2 -17 25 hhcurveto
          25 2 15 44 7 hvcurveto
          157 hlineto
          hintmask 1001001000000000
          -42 -254 rlineto
          -297 hlineto
          14 82 rlineto
          15 2 3 17 -26 hhcurveto
          -25 174 callgsubr
          -16 -92 rlineto
          -25 -4 5 -7 25 hhcurveto
          409 161 callgsubr
        </CharString>
        <CharString name="Eta">
          145 callgsubr
          hstem
          107 callgsubr
          vstem
          -96 callgsubr
          endchar
        </CharString>
        <CharString name="Eth">
          -17 callgsubr
        </CharString>
        <CharString name="Etilde">
          50 callsubr
          52 46 10 47 -81 callgsubr
          53 711 -107 callsubr
          16 85 callsubr
          -9 -54 callgsubr
          15 17 25 hvcurveto
          20 13 33 22 2 13 rrcurveto
          endchar
        </CharString>
        <CharString name="Euro">
          218 44 0 44 0 44 hstem
          167 52 -38 52 -38 52 cntrmask 11111100
          465 8 rmoveto
          17 98 rlineto
          11 2 -8 9 -11 hhcurveto
          -12 hlineto
          -11 -9 -7 -10 -3 hvcurveto
          -44 -13 -45 -33 -44 hhcurveto
          -46 -27 36 41 -17 hvcurveto
          -12 29 -6 33 -3 47 rrcurveto
          161 hlineto
          6 6 4 6 2 hvcurveto
          7 16 rlineto
          9 4 -5 9 -8 hhcurveto
          -171 hlineto
          1 21 2 11 2 12 2 12 2 11 5 21 rrcurveto
          199 hlineto
          6 6 4 6 2 hvcurveto
          7 17 rlineto
          9 4 -4 8 -9 hhcurveto
          -197 hlineto
          17 45 18 33 22 31 rrcurveto
          40 31 39 36 46 hhcurveto
          44 33 -33 -44 -1 hvcurveto
          -10 -1 7 -7 11 hhcurveto
          12 hlineto
          11 10 9 11 2 hvcurveto
          17 98 rlineto
          11 1 -7 8 -11 hhcurveto
          -4 hlineto
          -6 -7 -2 -4 -3 hvcurveto
          -20 -21 rlineto
          20 -28 -28 7 -30 hhcurveto
          -61 -56 -43 -53 -41 hvcurveto
          -30 -38 -21 -42 -18 -52 rrcurveto
          -46 176 callsubr
          44 hlineto
          -5 -22 -2 -11 -2 -11 -2 -11 -2 -11 -1 -22 rrcurveto
          -40 176 callsubr
          50 hlineto
          2 -53 7 -41 16 -39 rrcurveto
          -53 23 42 -43 61 hhcurveto
          30 30 7 19 36 hvcurveto
          12 -19 rlineto
          -5 3 5 -2 6 hhcurveto
          4 hlineto
          11 10 8 11 2 hvcurveto
          endchar
        </CharString>
        <CharString name="F">
          67 callgsubr
          hstemhm
          114 50 -50 51 37 51 268 50 cntrmask 11100000
          hintmask 11110100
          571 211 callsubr
          -394 30 callsubr
          11 hhcurveto
          45 -36 callsubr
          -45 -85 callgsubr
          11 hhcurveto
          160 -75 callsubr
          hintmask 11101110
          -64 140 callsubr
          161 hlineto
          -44 -7 -2 -15 26 hhcurveto
          25 3 18 14 2 hvcurveto
          16 97 -2 callsubr
          -26 -2 -15 -44 -7 hvcurveto
          -161 140 callsubr
          279 hlineto
          -11 -66 -34 callsubr
          25 71 callsubr
          endchar
        </CharString>
        <CharString name="G">
          -11 114 callsubr
          hstem
          92 50 vstem
          -98 callsubr
          endchar
        </CharString>
        <CharString name="Gacute">
          -11 114 callsubr
          72 165 callsubr
          hstemhm
          92 50 hintmask 11100100
          -98 callsubr
          hintmask 00011000
          -45 527 -104 callsubr
        </CharString>
        <CharString name="Gamma">
          40 callgsubr
          hstem
          121 51 37 51 259 50 vstem
          569 211 callsubr
          -388 36 callsubr
          -20 -3 54 callgsubr
          48 -36 callsubr
          -48 hlineto
          -12 -19 -84 callgsubr
          54 callgsubr
          167 39 callgsubr
          -68 67 callsubr
          270 hlineto
          -11 -66 rlineto
          -14 -2 -3 -18 24 hhcurveto
          26 71 callsubr
          endchar
        </CharString>
        <CharString name="Gbreve">
          -11 114 callsubr
          51 235 callsubr
          92 50 hintmask 11100100
          -98 callsubr
          hintmask 00011000
          25 509 -89 callsubr
          endchar
        </CharString>
        <CharString name="Gcaron">
          -11 114 callsubr
          128 -20 hstemhm
          92 50 hintmask 11101000
          -98 callsubr
          hintmask 00010000
          -8 490 -97 callgsubr
        </CharString>
        <CharString name="Gcedilla">
          46 callgsubr
          44 114 callsubr
          hstem
          92 50 39 28 31 28 vstem
          -98 callsubr
          -237 -360 -89 callgsubr
        </CharString>
        <CharString name="Gcircumflex">
          -11 114 callsubr
          62 -21 hstemhm
          92 50 hintmask 11101000
          -98 callsubr
          hintmask 00010000
          -15 447 -106 callgsubr
          endchar
        </CharString>
        <CharString name="Gcommaaccent">
          46 callgsubr
          44 114 callsubr
          hstemhm
          92 50 39 28 31 28 hintmask 00111100
          -98 callsubr
          hintmask 11000011
          -237 -360 -89 callgsubr
        </CharString>
        <CharString name="Gdotaccent">
          -11 114 callsubr
          52 83 hstemhm
          92 50 199 82 hintmask 11101000
          -98 callsubr
          hintmask 00010100
          -111 477 -14 callgsubr
        </CharString>
        <CharString name="H">
          145 callgsubr
          hstem
          107 callgsubr
          vstem
          -96 callgsubr
          endchar
        </CharString>
        <CharString name="H_uni0303">
          145 callgsubr
          52 46 10 47 hstemhm
          107 callgsubr
          hintmask 1110011110000000
          -96 callgsubr
          hintmask 0001100000000000
          54 722 -107 callsubr
          16 85 callsubr
          -9 -54 callgsubr
          15 17 25 hvcurveto
          20 13 33 22 2 13 rrcurveto
          endchar
        </CharString>
        <CharString name="Hbar">
          0 42 255 42 102 44 84 42 hstemhm
          98 51 16 51 -44 51 -37 51 152 51 16 51 -44 51 -37 51 -24 51 hintmask 1010000011000000
          504 19 callsubr
          -36 hlineto
          67 399 rlineto
          41 hlineto
          12 11 -5 callsubr
          hintmask 0010000000001000
          154 callsubr
          hintmask 0010000000100000
          -41 hlineto
          hintmask 0001000000010000
          14 84 rlineto
          36 -72 callgsubr
          -123 -73 callsubr
          12 hhcurveto
          36 hlineto
          hintmask 0010001000100000
          -14 -84 rlineto
          -240 hlineto
          hintmask 0001000100000000
          14 84 rlineto
          36 -72 callgsubr
          -123 -45 callsubr
          36 hlineto
          hintmask 0010001000000000
          -14 -84 rlineto
          -41 hlineto
          -12 -12 191 callgsubr
          9 -10 12 hhcurveto
          hintmask 1110110010001000
          41 hlineto
          -67 -399 rlineto
          -36 hlineto
          -12 -19 0 -21 -3 hvcurveto
          -21 -4 20 0 11 -67 callgsubr
          43 255 236 callgsubr
          -43 -255 -22 callgsubr
          -65 318 rmoveto
          -240 hlineto
          17 102 rlineto
          hintmask 0110000001000000
          240 hlineto
          endchar
        </CharString>
        <CharString name="Hbrevebelow">
          -198 45 51 -20 122 114 callgsubr
          hstemhm
          107 callgsubr
          hintmask 0011111110000000
          -96 callgsubr
          hintmask 1100001000000000
          -90 -145 -6 callsubr
        </CharString>
        <CharString name="Hcircumflex">
          145 callgsubr
          73 -21 hstemhm
          107 callgsubr
          hintmask 11101111
          -96 callgsubr
          hintmask 00010000
          15 664 -106 callgsubr
          endchar
        </CharString>
        <CharString name="Hdieresis">
          145 callgsubr
          52 72 hstemhm
          222 callsubr
          5 72 75 51 3 72 -38 51 hintmask 1110110101000000
          -96 callgsubr
          hintmask 0001001010000000
          -190 678 -95 callgsubr
          endchar
        </CharString>
        <CharString name="Hdotbelow">
          -207 83 124 114 callgsubr
          hstemhm
          222 callsubr
          -43 82 113 51 37 51 hintmask 0111110110000000
          -96 callgsubr
          hintmask 1000001000000000
          -228 -186 -98 callgsubr
        </CharString>
        <CharString name="I">
          40 callgsubr
          hstem
          244 51 37 51 vstem
          -101 callgsubr
          endchar
        </CharString>
        <CharString name="Iacute">
          40 callgsubr
          83 165 callsubr
          107 callsubr
          hintmask 11001100
          -101 callgsubr
          hintmask 00110000
          43 744 -104 callsubr
        </CharString>
        <CharString name="Ibreve">
          40 callgsubr
          62 45 51 -20 107 callsubr
          hintmask 11001100
          -101 callgsubr
          hintmask 00110100
          113 726 -89 callsubr
          endchar
        </CharString>
        <CharString name="Icaron">
          149 callsubr
          244 51 37 51 hintmask 11011000
          -101 callgsubr
          hintmask 00100000
          80 707 -97 callgsubr
        </CharString>
        <CharString name="Icircumflex">
          40 callgsubr
          73 -21 107 callsubr
          hintmask 11011000
          -101 callgsubr
          hintmask 00100000
          73 664 -106 callgsubr
          endchar
        </CharString>
        <CharString name="Idblgrave">
          40 callgsubr
          83 -21 125 -20 107 callsubr
          hintmask 11001100
          -101 callgsubr
          hintmask 00110000
          99 682 -76 callsubr
        </CharString>
        <CharString name="Idieresis">
          40 callgsubr
          52 72 hstemhm
          242 72 -70 51 37 51 60 72 hintmask 11001100
          -101 callgsubr
          hintmask 00110010
          -132 678 -95 callgsubr
          endchar
        </CharString>
        <CharString name="Idieresisacute">
          40 callgsubr
          52 72 82 165 callsubr
          hstemhm
          242 72 -70 51 37 51 60 72 hintmask 1100001100000000
          -101 callgsubr
          hintmask 0011110010000000
          -132 678 -95 callgsubr
          -5 189 -104 callsubr
        </CharString>
        <CharString name="Idotaccent">
          40 callgsubr
          63 83 107 callsubr
          -42 82 hintmask 11011000
          -101 callgsubr
          hintmask 00100100
          -23 694 -14 callgsubr
        </CharString>
        <CharString name="Idotbelow">
          181 callgsubr
          37 51 hintmask 01101100
          -101 callgsubr
          hintmask 10010000
          -170 -186 -98 callgsubr
        </CharString>
        <CharString name="Igrave">
          40 callgsubr
          83 165 callsubr
          107 callsubr
          hintmask 11001100
          -101 callgsubr
          hintmask 00110000
          32 683 rmoveto
          -79 callsubr
        </CharString>
        <CharString name="Ihookabove">
          40 callgsubr
          63 68 callgsubr
          244 51 12 39 -14 51 -32 37 -33 37 -25 37 hintmask 1100101000000000
          -101 callgsubr
          hintmask 0001010001000000
          45 798 -68 callsubr
          hintmask 0010000010000000
          44 callsubr
          hintmask 0000000100000000
          -4 -19 rlineto
          hintmask 0010000001000000
          135 callsubr
          hintmask 0000000100000000
          134 callsubr
          hintmask 0010000010000000
          12 callsubr
        </CharString>
        <CharString name="Imacron">
          40 callgsubr
          72 44 107 callsubr
          hintmask 11011000
          -101 callgsubr
          hintmask 00100000
          119 683 -41 callgsubr
        </CharString>
        <CharString name="Imacron.alt">
          40 callgsubr
          72 44 107 callsubr
          hintmask 11011000
          -101 callgsubr
          hintmask 00100000
          31 683 104 callgsubr
        </CharString>
        <CharString name="Iogonek">
          110 callgsubr
          133 47 callsubr
          107 callsubr
          hintmask 10111100
          6 callgsubr
          endchar
        </CharString>
        <CharString name="Iogonekacute">
          110 callgsubr
          133 47 callsubr
          83 165 callsubr
          107 callsubr
          hintmask 10110011
          6 callgsubr
          hintmask 00001100
          43 744 -104 callsubr
        </CharString>
        <CharString name="Iota">
          40 callgsubr
          hstem
          244 51 37 51 vstem
          -101 callgsubr
          endchar
        </CharString>
        <CharString name="Itilde">
          40 callgsubr
          52 46 10 47 107 callsubr
          hintmask 11001100
          -101 callgsubr
          hintmask 00111000
          112 722 -107 callsubr
          16 85 callsubr
          -9 -54 callgsubr
          15 17 25 hvcurveto
          20 13 33 22 2 13 rrcurveto
          endchar
        </CharString>
        <CharString name="J">
          232 callgsubr
          hstem
          322 51 73 51 vstem
          -36 callgsubr
          endchar
        </CharString>
        <CharString name="J_uni030C.cap">
          -11 42 61 42 314 231 callsubr
          322 51 73 51 101 28 31 28 hintmask 1100111100000000
          -36 callgsubr
          141 -46 82 callsubr
          hintmask 0011000110000000
          -2 callgsubr
        </CharString>
        <CharString name="Jacute">
          232 callgsubr
          83 165 callsubr
          hstemhm
          322 51 73 51 hintmask 11100110
          -36 callgsubr
          hintmask 00011000
          1 175 -104 callsubr
        </CharString>
        <CharString name="Jcircumflex">
          232 callgsubr
          73 -21 hstemhm
          322 51 73 51 hintmask 11101100
          -36 callgsubr
          hintmask 00010000
          31 95 -106 callgsubr
          endchar
        </CharString>
        <CharString name="K">
          40 callgsubr
          hstemhm
          98 40 48 40 0 40 hintmask 11001000
          -34 callgsubr
          hintmask 11110000
          -23 callsubr
          endchar
        </CharString>
        <CharString name="Kappa">
          40 callgsubr
          hstemhm
          98 40 48 40 0 40 hintmask 11001000
          -34 callgsubr
          hintmask 11110000
          -23 callsubr
          endchar
        </CharString>
        <CharString name="Kcedilla">
          35 callgsubr
          98 40 43 28 -23 40 0 40 -26 28 hintmask 0011000100000000
          -34 callgsubr
          hintmask 0111101000000000
          -23 callsubr
          -200 151 callsubr
          hintmask 1100010010000000
          141 callsubr
          -24 -4 15 -15 20 hhcurveto
          11 8 2 4 9 hvcurveto
          131 callgsubr
        </CharString>
        <CharString name="Kcommaaccent">
          35 callgsubr
          98 40 43 28 -23 40 0 40 -26 28 hintmask 0011000100000000
          -34 callgsubr
          hintmask 0011101000000000
          -23 callsubr
          hintmask 1100010010000000
          -200 -143 -89 callgsubr
        </CharString>
        <CharString name="L">
          40 callgsubr
          hstem
          121 51 37 51 196 50 vstem
          -85 callsubr
          endchar
        </CharString>
        <CharString name="L_uni0303">
          40 callgsubr
          52 46 10 47 hstemhm
          121 51 37 51 196 50 hintmask 11001110
          -85 callsubr
          hintmask 00110100
          -51 711 -107 callsubr
          16 85 callsubr
          -9 -54 callgsubr
          15 17 25 hvcurveto
          20 13 33 22 2 13 rrcurveto
          endchar
        </CharString>
        <CharString name="Lacute">
          40 callgsubr
          83 165 callsubr
          hstemhm
          121 51 37 51 196 50 hintmask 11001110
          -85 callsubr
          hintmask 00110000
          -120 733 -104 callsubr
        </CharString>
        <CharString name="Lambda">
          0 42 539 42 hstem
          497 178 callsubr
          -20 0 -37 hhcurveto
          -35 551 rlineto
          30 -3 -16 0 -18 hhcurveto
          -10 hlineto
          -17 -17 0 -27 -12 hvcurveto
          -220 -554 rlineto
          -37 -63 callsubr
          -30 callgsubr
          112 -31 callgsubr
          21 3 -20 -32 callsubr
          -35 hlineto
          209 539 rlineto
          5 hlineto
          29 -539 rlineto
          -34 hlineto
          -11 160 callgsubr
          111 hlineto
          12 21 -55 callgsubr
          endchar
        </CharString>
        <CharString name="Lcaron">
          0 42 406 231 callsubr
          121 51 37 51 147 28 21 50 -40 28 hintmask 1001111100000000
          -85 callsubr
          33 512 82 callsubr
          hintmask 0110001010000000
          -2 callgsubr
        </CharString>
        <CharString name="Lcedilla">
          35 callgsubr
          121 51 9 28 0 51 -20 28 188 50 hintmask 0111101010000000
          -85 callsubr
          57 callsubr
        </CharString>
        <CharString name="Lcommaaccent">
          35 callgsubr
          121 51 9 28 0 51 -20 28 188 50 hintmask 0011101010000000
          -85 callsubr
          hintmask 0100001000000000
          57 callsubr
        </CharString>
        <CharString name="Ldot">
          0 42 233 83 211 42 hstemhm
          121 51 37 51 154 82 -40 50 hintmask 11111010
          -85 callsubr
          6 284 rmoveto
          24 -20 callgsubr
          hintmask 01000100
          -23 -21 -18 -24 18 callgsubr
        </CharString>
        <CharString name="Ldotbelow">
          61 callgsubr
          hstemhm
          121 51 22 82 -67 51 196 50 hintmask 01110110
          -85 callsubr
          hintmask 10001000
          -214 -197 -98 callgsubr
        </CharString>
        <CharString name="Ldotbelowmacron">
          61 callgsubr
          72 44 hstemhm
          121 51 22 82 -67 51 196 50 hintmask 11101011
          -85 callsubr
          -214 -197 rmoveto
          190 callsubr
          hintmask 10000100
          155 callgsubr
          -24 -31 callsubr
          23 21 18 24 4 hvcurveto
          hintmask 00010000
          177 869 -41 callgsubr
        </CharString>
        <CharString name="Lslash">
          40 callgsubr
          hstemhm
          121 51 -4 50 -9 51 196 50 hintmask 10100100
          490 233 callsubr
          15 2 3 17 -25 240 callsubr
          -16 -2 hvcurveto
          -14 -82 rlineto
          -270 hlineto
          hintmask 00010000
          46 273 236 143 10 6 5 13 -5 9 rlinecurve
          -4 9 -12 4 -10 -6 -212 -130 rcurveline
          hintmask 01001000
          34 206 rlineto
          68 -61 callgsubr
          hintmask 01010000
          -167 36 callsubr
          -20 -3 54 callgsubr
          hintmask 11101000
          48 hlineto
          -40 -240 -84 -52 -9 -6 -5 236 callsubr
          58 36 rcurveline
          -40 -238 rlineto
          -48 hlineto
          -12 -19 -84 callgsubr
          54 callgsubr
          388 160 callsubr
        </CharString>
        <CharString name="M">
          -15 callgsubr
        </CharString>
        <CharString name="Mdotbelow">
          -207 83 124 42 169 42 316 42 hstemhm
          81 38 50 38 -37 37 -13 82 -62 37 169 37 6 38 7 37 hintmask 0111110011110000
          509 178 callsubr
          -19 0 -36 hhcurveto
          86 callgsubr
          36 83 callsubr
          -58 hlineto
          -34 -10 -12 -22 -11 hvcurveto
          -158 -324 rlineto
          -2 hlineto
          -52 340 rlineto
          19 -3 -27 -1 -11 hhcurveto
          -58 -73 callsubr
          36 hhcurveto
          105 callgsubr
          hintmask 0111101011110000
          172 callsubr
          -35 hhcurveto
          86 callgsubr
          7 hlineto
          55 -345 rlineto
          -11 3 16 -2 9 hhcurveto
          10 20 4 13 6 hvcurveto
          168 341 rlineto
          7 hlineto
          105 callgsubr
          11 20 0 21 4 hvcurveto
          hintmask 1000000100000000
          -233 -186 -98 callgsubr
        </CharString>
        <CharString name="Mu">
          -15 callgsubr
        </CharString>
        <CharString name="N">
          40 callgsubr
          98 callsubr
          hintmask 11101010
          -90 callsubr
          hintmask 11010110
          -29 callsubr
          hintmask 01000001
          37 72 callsubr
          20 3 hvcurveto
          endchar
        </CharString>
        <CharString name="Nacute">
          40 callgsubr
          83 165 callsubr
          98 callsubr
          hintmask 1100101010000000
          -90 callsubr
          hintmask 1100010110000000
          -29 callsubr
          hintmask 0100000001000000
          37 72 callsubr
          20 3 hvcurveto
          hintmask 0011000000000000
          -103 176 -104 callsubr
        </CharString>
        <CharString name="Ncaron">
          0 42 527 42 139 -20 98 callsubr
          hintmask 1101010100000000
          -90 callsubr
          hintmask 1100101100000000
          -29 callsubr
          hintmask 0100000010000000
          37 72 callsubr
          20 3 hvcurveto
          hintmask 0010000000000000
          -66 139 -97 callgsubr
        </CharString>
        <CharString name="Ncedilla">
          35 callgsubr
          68 37 0 37 14 37 -12 28 -16 37 10 28 216 37 0 37 hintmask 0011101000100000
          -90 callsubr
          hintmask 0011010010100000
          -29 callsubr
          hintmask 1101000101010000
          37 72 callsubr
          20 3 hvcurveto
          -295 -711 -89 callgsubr
        </CharString>
        <CharString name="Ncommaaccent">
          35 callgsubr
          68 37 0 37 14 37 -12 28 -16 37 10 28 216 37 0 37 hintmask 0011101000100000
          -90 callsubr
          hintmask 0011010010100000
          -29 callsubr
          hintmask 0001000000010000
          37 72 callsubr
          20 3 hvcurveto
          hintmask 1100000101000000
          -295 -711 -89 callgsubr
        </CharString>
        <CharString name="Ndotaccent">
          40 callgsubr
          52 83 134 callgsubr
          109 82 63 37 0 37 hintmask 1101010010000000
          -90 callsubr
          hintmask 1100101010000000
          -29 callsubr
          hintmask 0100000001000000
          37 72 callsubr
          20 3 hvcurveto
          hintmask 0010000100000000
          -171 115 -14 callgsubr
        </CharString>
        <CharString name="Ndotbelow">
          61 callgsubr
          134 callgsubr
          -36 82 208 37 0 37 hintmask 0111010010000000
          -90 callsubr
          hintmask 0110101010000000
          -29 callsubr
          hintmask 0010000001000000
          37 72 callsubr
          20 3 hvcurveto
          hintmask 1000000100000000
          -316 -754 -98 callgsubr
        </CharString>
        <CharString name="Ntilde">
          40 callgsubr
          52 46 10 47 98 callsubr
          hintmask 1100101010000000
          -90 callsubr
          hintmask 1100010110000000
          -29 callsubr
          hintmask 0100000001000000
          37 72 callsubr
          20 3 hvcurveto
          hintmask 0011000001000000
          -34 154 -107 callsubr
          16 85 callsubr
          -9 -54 callgsubr
          15 17 25 hvcurveto
          20 13 33 22 2 13 rrcurveto
          endchar
        </CharString>
        <CharString name="Nu">
          40 callgsubr
          98 callsubr
          hintmask 11101010
          -90 callsubr
          hintmask 11010110
          -29 callsubr
          hintmask 01000001
          37 72 callsubr
          20 3 hvcurveto
          endchar
        </CharString>
        <CharString name="O">
          45 callgsubr
          hstem
          -104 callgsubr
          endchar
        </CharString>
        <CharString name="OE">
          -33 callgsubr
        </CharString>
        <CharString name="OE.dup">
          -33 callgsubr
        </CharString>
        <CharString name="Oacute">
          -11 42 549 42 72 -21 118 -20 -96 callsubr
          hintmask 00110000
          23 451 -104 callsubr
        </CharString>
        <CharString name="Obreve">
          45 callgsubr
          51 45 51 -20 -96 callsubr
          hintmask 00110000
          93 433 -89 callsubr
          endchar
        </CharString>
        <CharString name="Ocaron">
          45 callgsubr
          128 -20 -96 callsubr
          hintmask 00100000
          60 414 -97 callgsubr
        </CharString>
        <CharString name="Ocircumflex">
          45 callgsubr
          62 -21 -96 callsubr
          hintmask 00100000
          53 371 -106 callgsubr
          endchar
        </CharString>
        <CharString name="Ocircumflexacute">
          45 callgsubr
          62 -21 224 -20 -96 callsubr
          hintmask 00110000
          53 371 -106 callgsubr
          -15 176 -104 callsubr
        </CharString>
        <CharString name="Ocircumflexdotbelow">
          152 callgsubr
          62 -21 220 callsubr
          hintmask 01110000
          -104 callgsubr
          53 371 -106 callgsubr
          hintmask 10001000
          -243 -850 -98 callgsubr
        </CharString>
        <CharString name="Ocircumflexgrave">
          45 callgsubr
          62 -21 -96 callsubr
          hintmask 00100000
          53 371 -106 callgsubr
          -25 115 rmoveto
          -6 -1 -8 -25 -20 hhcurveto
          0 -5 1 -2 1 vhcurveto
          -133 64 -18 8 -2 239 callsubr
          15 3 0 callsubr
          8 -4 -2 -12 rlinecurve
          endchar
        </CharString>
        <CharString name="Ocircumflexhookabove">
          45 callgsubr
          41 37 -30 37 42 68 callgsubr
          374 37 0 78 callgsubr
          24 37 -1 39 hintmask 1100000000000000
          -104 callgsubr
          hintmask 0001001000000000
          53 371 rmoveto
          1 8 -7 9 -12 5 -101 40 rcurveline
          -8 3 -8 0 -10 -3 -115 -40 rcurveline
          -14 -5 -11 -9 -1 -8 rrcurveto
          hintmask 0010000000000000
          -38 callsubr
          hintmask 0001000000000000
          6 15 4 3 11 hvcurveto
          hintmask 0010000000000000
          94 30 rlineto
          hintmask 0001000000000000
          84 -30 rlineto
          hintmask 0010011000100000
          -43 callsubr
          hintmask 0000110101100000
          -48 callsubr
          3 47 callgsubr
          -5 -9 -8 -5 vhcurveto
          44 callsubr
          hintmask 0000100010000000
          -45 callgsubr
          hintmask 0000100001010000
          175 callgsubr
          18 21 39 4 callgsubr
        </CharString>
        <CharString name="Ocircumflextilde">
          45 callgsubr
          62 -21 37 47 42 46 10 47 -96 callsubr
          hintmask 00111100
          53 371 -106 callgsubr
          59 184 -107 callsubr
          16 85 callsubr
          -9 -54 callgsubr
          15 17 25 hvcurveto
          20 13 33 22 2 13 rrcurveto
          endchar
        </CharString>
        <CharString name="Odblgrave">
          45 callgsubr
          72 -21 125 -20 -96 callsubr
          hintmask 00110000
          79 389 -76 callsubr
        </CharString>
        <CharString name="Odieresis">
          45 callgsubr
          41 207 callsubr
          hintmask 11000000
          -104 callgsubr
          hintmask 00111000
          -152 385 -95 callgsubr
          endchar
        </CharString>
        <CharString name="Odotbelow">
          152 callgsubr
          220 callsubr
          hintmask 01100000
          -104 callgsubr
          hintmask 10010000
          -190 -479 -98 callgsubr
        </CharString>
        <CharString name="Ograve">
          -11 42 549 42 72 -21 118 -20 -96 callsubr
          hintmask 00110000
          12 390 rmoveto
          -79 callsubr
        </CharString>
        <CharString name="Ohookabove">
          45 callgsubr
          52 68 callgsubr
          307 115 callgsubr
          hintmask 11000000
          -104 callgsubr
          hintmask 00011001
          25 505 -68 callsubr
          hintmask 00100010
          44 callsubr
          hintmask 00000100
          -4 -19 rlineto
          hintmask 00100001
          135 callsubr
          hintmask 00000100
          134 callsubr
          hintmask 00100010
          12 callsubr
        </CharString>
        <CharString name="Ohorn">
          45 callgsubr
          92 -20 hstem
          602 654 rmoveto
          4 26 -3 33 -33 1 -83 callgsubr
          endchar
        </CharString>
        <CharString name="Ohornacute">
          -11 callgsubr
          -5 447 -104 callsubr
        </CharString>
        <CharString name="Ohorndotbelow">
          152 callgsubr
          92 -20 220 callsubr
          hintmask 01110000
          602 654 rmoveto
          4 26 -3 33 -33 1 -83 callgsubr
          hintmask 10001000
          -189 -483 -98 callgsubr
        </CharString>
        <CharString name="Ohorngrave">
          -11 callgsubr
          -16 386 rmoveto
          -79 callsubr
        </CharString>
        <CharString name="Ohornhookabove">
          45 callgsubr
          52 37 3 -20 160 37 hstemhm
          307 115 callgsubr
          hintmask 1101000000000000
          602 654 rmoveto
          4 26 -3 33 -33 1 -83 callgsubr
          hintmask 0000110010000000
          26 501 -68 callsubr
          hintmask 0010000100000000
          44 callsubr
          hintmask 0000001000000000
          -4 -19 rlineto
          hintmask 0010000010000000
          135 callsubr
          hintmask 0000001000000000
          134 callsubr
          hintmask 0010000100000000
          12 callsubr
        </CharString>
        <CharString name="Ohorntilde">
          45 callgsubr
          41 46 5 -20 25 47 hstemhm
          hintmask 11010000
          602 654 rmoveto
          4 26 -3 33 -33 1 5 callgsubr
          64 425 -107 callsubr
          16 85 callsubr
          -9 -54 callgsubr
          15 17 25 hvcurveto
          20 13 33 22 2 13 rrcurveto
          endchar
        </CharString>
        <CharString name="Ohungarumlaut">
          45 callgsubr
          72 -21 125 -20 -96 callsubr
          hintmask 00110000
          -108 457 rmoveto
          -25 callsubr
          201 hmoveto
          -25 callsubr
          endchar
        </CharString>
        <CharString name="Omacron">
          45 callgsubr
          61 44 -96 callsubr
          hintmask 00100000
          99 390 -41 callgsubr
        </CharString>
        <CharString name="Omega">
          -13 callgsubr
        </CharString>
        <CharString name="Omicron">
          45 callgsubr
          hstem
          -104 callgsubr
          endchar
        </CharString>
        <CharString name="Oogonek">
          110 callgsubr
          121 43 -42 42 549 42 hstemhm
          164 41 hintmask 10101100
          63 callgsubr
          hintmask 01011100
          26 callgsubr
          endchar
        </CharString>
        <CharString name="Oogonekacute">
          110 callgsubr
          121 43 -42 42 549 42 72 165 callsubr
          hstemhm
          164 41 hintmask 10101001
          63 callgsubr
          hintmask 01011001
          26 callgsubr
          hintmask 00000110
          23 451 -104 callsubr
        </CharString>
        <CharString name="Orogate">
          516 305 rmoveto
          46 276 -11 38 -164 3 20 123 rcurveline
          12 -9 9 -12 -10 -9 -8 -10 -2 vhcurveto
          -21 -126 -164 -3 -24 -37 -46 -277 rlinecurve
          -46 -276 11 -37 164 -3 -20 -123 228 callgsubr
          21 126 164 3 25 37 46 276 rlinecurve
          -50 9 rmoveto
          -10 -65 -13 -74 -21 -56 rrcurveto
          -63 -23 -32 -25 -100 hhcurveto
          -99 -23 25 56 -3 hvcurveto
          -4 54 15 91 9 57 11 65 12 71 20 49 rrcurveto
          66 25 37 15 92 hhcurveto
          84 36 -12 -62 6 hvcurveto
          5 -49 -13 -79 -11 -64 rrcurveto
          endchar
        </CharString>
        <CharString name="Oslash">
          -67 -21 77 42 549 42 77 -20 hstem
          110 38 330 38 vstem
          -56 callsubr
          endchar
        </CharString>
        <CharString name="Oslash.dup">
          -67 -21 77 42 549 42 77 -20 hstem
          110 38 330 38 vstem
          -56 callsubr
          endchar
        </CharString>
        <CharString name="Oslashacute">
          -67 -21 77 42 549 42 72 -21 26 -20 112 -20 hstemhm
          110 38 330 38 hintmask 11101011
          -56 callsubr
          hintmask 00010100
          53 192 -104 callsubr
        </CharString>
        <CharString name="Otilde">
          45 callgsubr
          41 46 10 47 -96 callsubr
          hintmask 00110000
          92 429 -107 callsubr
          16 85 callsubr
          -9 -54 callgsubr
          15 17 25 hvcurveto
          20 13 33 22 2 13 rrcurveto
          endchar
        </CharString>
        <CharString name="P">
          9 callsubr
        </CharString>
        <CharString name="Phi">
          0 42 117 42 209 42 117 42 hstemhm
          94 50 100 51 -31 51 -44 51 -17 51 -44 51 -31 51 98 51 hintmask 0010000001000000
          532 305 rmoveto
          12 73 -68 62 -113 12 rrcurveto
          hintmask 0001000000100000
          20 117 rlineto
          53 -61 callgsubr
          -157 hlineto
          -11 -21 -65 callgsubr
          21 0 11 hhcurveto
          53 hlineto
          hintmask 0010100001000000
          -20 -117 -120 -12 -86 -64 -12 -70 rlinecurve
          hintmask 0100001000000000
          -12 -74 69 -62 113 -11 rrcurveto
          hintmask 1000010000000000
          -20 -117 rlineto
          -53 -18 callsubr
          -30 callgsubr
          157 39 callgsubr
          -53 hlineto
          hintmask 0100001000010000
          20 117 119 13 86 64 12 69 rlinecurve
          -51 1 rmoveto
          hintmask 0100000100000000
          -9 -53 -67 -40 -83 -12 rrcurveto
          hintmask 0010100010010000
          34 209 85 -12 48 -44 -8 -48 rlinecurve
          -210 -105 rmoveto
          -90 13 -45 45 8 46 8 49 63 44 90 12 rrcurveto
          hintmask 0100000100000000
          endchar
        </CharString>
        <CharString name="Pi">
          40 callgsubr
          hstem
          107 callgsubr
          vstem
          504 19 callsubr
          -36 67 callsubr
          36 -72 callgsubr
          -414 -45 callsubr
          36 -36 callsubr
          -36 hlineto
          -12 -19 0 -21 -3 hvcurveto
          -21 -4 20 0 11 -67 callgsubr
          88 527 rlineto
          240 hlineto
          -88 -527 -22 callgsubr
          endchar
        </CharString>
        <CharString name="Psi">
          0 42 118 42 367 42 179 callgsubr
          -31 51 -44 51 10 51 70 51 hintmask 01100111
          559 457 rmoveto
          22 4 -19 0 -8 hhcurveto
          -65 -12 -71 -36 -6 hvcurveto
          -10 -61 -24 -80 -97 -29 61 367 rcurveline
          46 hlineto
          12 20 0 20 3 hvcurveto
          22 96 callsubr
          -143 hlineto
          -12 -20 -88 callgsubr
          12 hhcurveto
          46 hlineto
          -61 -367 -88 27 1 78 11 66 rlinecurve
          47 8 5 59 -60 hhcurveto
          -8 58 callsubr
          -2 -16 12 -4 6 -1 14 -4 0 -40 -5 -32 rrcurveto
          hintmask 01001000
          -11 -74 9 -104 124 -22 rrcurveto
          hintmask 10010000
          -20 -118 rlineto
          121 callgsubr
          -46 hlineto
          hintmask 01001001
          20 118 130 22 43 102 16 86 rlinecurve
          3 18 12 44 18 4 6 1 14 4 2 16 rrcurveto
          endchar
        </CharString>
        <CharString name="Q">
          -123 -21 133 42 549 42 hstemhm
          110 51 268 51 -15 51 hintmask 11111000
          516 305 rmoveto
          288 48 -14 29 -184 hhcurveto
          -184 -24 -28 -289 -48 hvcurveto
          -288 -48 14 -28 184 hhcurveto
          13 33 0 1 18 hvcurveto
          45 -126 rlineto
          -8 4 10 0 12 hhcurveto
          9 hlineto
          10 13 0 10 2 hvcurveto
          5 -14 35 -7 21 vhcurveto
          -27 72 57 22 21 34 21 78 rlinecurve
          hintmask 01110100
          17 56 11 69 8 47 rrcurveto
          -51 1 rmoveto
          -37 -222 -27 -17 -36 -22 -39 100 rcurveline
          11 -5 -1 0 -14 hhcurveto
          -12 hlineto
          -9 -14 0 -9 -1 hvcurveto
          -4 vlineto
          39 -112 rlineto
          -50 hlineto
          -101 -16 33 60 -2 110 callsubr
          endchar
        </CharString>
        <CharString name="R">
          67 callgsubr
          hstem
          222 callsubr
          138 50 28 50 cntrmask 11100000
          -102 callgsubr
          endchar
        </CharString>
        <CharString name="Racute">
          142 callsubr
          138 50 28 50 cntrmask 11100000
          -102 callgsubr
          hintmask 11100000
          36 317 -104 callsubr
        </CharString>
        <CharString name="Rcaron">
          142 callsubr
          138 50 28 50 cntrmask 11100000
          -102 callgsubr
          hintmask 11100000
          73 280 -97 callgsubr
        </CharString>
        <CharString name="Rcedilla">
          100 callsubr
          32 28 -23 51 3 28 107 50 28 50 cntrmask 1110000000000000
          hintmask 1111010110000000
          -102 callgsubr
          -156 -570 rmoveto
          41 6 -20 26 -29 hhcurveto
          hintmask 1110101000000000
          141 callsubr
          -24 -4 15 -15 20 hhcurveto
          11 8 2 4 9 hvcurveto
          131 callgsubr
        </CharString>
        <CharString name="Rcommaaccent">
          100 callsubr
          32 28 -23 51 3 28 107 50 28 50 cntrmask 1110000000000000
          hintmask 1111010110000000
          -102 callgsubr
          hintmask 1110101000000000
          -156 -570 -89 callgsubr
        </CharString>
        <CharString name="Rdblgrave">
          142 callsubr
          138 50 28 50 cntrmask 11100000
          -102 callgsubr
          hintmask 11100100
          63 255 -76 callsubr
        </CharString>
        <CharString name="Rdotaccent">
          142 callsubr
          104 82 -48 50 28 50 cntrmask 11100000
          hintmask 11111011
          -102 callgsubr
          hintmask 11100100
          -30 267 rmoveto
          23 4 -15 19 -23 hhcurveto
          -23 -21 -19 -23 -4 hvcurveto
          hintmask 11100010
          -23 -31 callsubr
          hintmask 11100100
          23 21 18 23 4 hvcurveto
          endchar
        </CharString>
        <CharString name="Rdotbelow">
          142 callsubr
          -43 82 99 50 28 50 cntrmask 11100000
          hintmask 11111011
          -102 callgsubr
          hintmask 11100100
          -177 -613 -98 callgsubr
        </CharString>
        <CharString name="Rdotbelowmacron">
          142 callsubr
          -43 82 99 50 28 50 cntrmask 11100000
          hintmask 11111011
          -102 callgsubr
          -177 -613 rmoveto
          190 callsubr
          hintmask 11100100
          155 callgsubr
          -24 -31 callsubr
          23 21 18 24 4 hvcurveto
          hintmask 11100000
          289 869 -41 callgsubr
        </CharString>
        <CharString name="Rho">
          9 callsubr
        </CharString>
        <CharString name="S">
          45 callgsubr
          hstem
          133 47 vstem
          -91 callgsubr
          endchar
        </CharString>
        <CharString name="Sacute">
          226 callgsubr
          133 47 hintmask 11001000
          -91 callgsubr
          hintmask 00110000
          -7 604 -104 callsubr
        </CharString>
        <CharString name="Scaron">
          45 callgsubr
          128 -20 hstemhm
          133 47 hintmask 11010000
          -91 callgsubr
          hintmask 00100000
          30 567 -97 callgsubr
        </CharString>
        <CharString name="Scedilla">
          -226 43 172 42 549 42 hstemhm
          74 47 -40 51 1 47 69 51 -45 50 -14 50 -4 51 -47 47 hintmask 0010110000100000
          496 161 rmoveto
          10 62 -28 41 -10 13 -34 40 -26 6 -75 18 -81 19 rcurveline
          -46 14 -35 40 9 53 rrcurveto
          58 10 63 55 80 hhcurveto
          127 3 -103 -40 1 hvcurveto
          -12 1 7 -3 13 192 callgsubr
          3 hvcurveto
          22 136 rlineto
          12 2 4 20 -21 hhcurveto
          -17 -7 -16 -40 -18 hvcurveto
          45 -45 -51 11 -45 hhcurveto
          -108 -87 -76 -83 -14 hvcurveto
          -11 -65 35 -64 77 -23 113 -28 rcurveline
          31 -7 87 -23 -16 -97 rrcurveto
          hintmask 0100110010000000
          -58 -10 -59 -67 -88 hhcurveto
          -31 -52 5 29 -38 hvcurveto
          -42 30 3 47 2 21 rrcurveto
          12 1 2 14 -23 94 callgsubr
          -3 hvcurveto
          -22 -136 rlineto
          hintmask 0101000100000000
          -12 -2 -4 -20 21 hhcurveto
          17 6 13 41 18 hvcurveto
          39 -33 43 -14 58 -6 rrcurveto
          hintmask 1001001001000000
          -6 -37 -2 -15 -3 -16 23 -2 rlinecurve
          52 -2 22 -25 -4 -24 rrcurveto
          -45 -7 -111 -7 -43 hhcurveto
          -31 -21 0 -22 -3 hvcurveto
          -16 -3 11 -5 10 hhcurveto
          93 140 0 95 16 hvcurveto
          6 36 -20 41 -74 14 rrcurveto
          hintmask 0100000100000000
          5 29 107 16 71 77 13 79 rlinecurve
          endchar
        </CharString>
        <CharString name="Scircumflex">
          45 callgsubr
          62 -21 hstemhm
          133 47 hintmask 11010000
          -91 callgsubr
          hintmask 00100000
          23 524 -106 callgsubr
          endchar
        </CharString>
        <CharString name="Sdotbelow">
          152 callgsubr
          hstemhm
          133 47 14 82 hintmask 01110000
          -91 callgsubr
          hintmask 10001000
          -220 -326 -98 callgsubr
        </CharString>
        <CharString name="Sigma">
          0 44 525 42 hstem
          448 51 15 51 vstem
          486 32 rmoveto
          13 78 rlineto
          14 3 3 18 128 callgsubr
          -11 -66 rlineto
          -316 hlineto
          181 243 9 12 1 3 2 7 rlinecurve
          -109 260 rlineto
          320 32 callgsubr
          33 callsubr
          -3 8 -27 hhcurveto
          -375 hlineto
          -12 -20 -62 callsubr
          -4 -1 -5 5 -10 vhcurveto
          113 -265 -210 -281 rlineto
          -1 -2 -1 -3 0 vvcurveto
          -19 -3 22 0 10 hhcurveto
          375 160 callsubr
        </CharString>
        <CharString name="T">
          40 callgsubr
          hstem
          112 callsubr
          vstem
          -86 callgsubr
          endchar
        </CharString>
        <CharString name="T_uni0303">
          40 callgsubr
          52 46 10 47 229 callsubr
          hintmask 11001111
          -86 callgsubr
          hintmask 00110100
          -22 240 -107 callsubr
          16 85 callsubr
          -9 -54 callgsubr
          15 17 25 hvcurveto
          20 13 33 22 2 13 rrcurveto
          endchar
        </CharString>
        <CharString name="T_uni0308">
          40 callgsubr
          52 72 hstemhm
          112 51 79 72 -70 51 37 51 60 72 14 51 hintmask 1101011010000000
          -86 callgsubr
          hintmask 0010100100000000
          -266 196 -95 callgsubr
          endchar
        </CharString>
        <CharString name="Tau">
          40 callgsubr
          hstem
          112 callsubr
          vstem
          -86 callgsubr
          endchar
        </CharString>
        <CharString name="Tcaron">
          0 42 527 42 139 -20 229 callsubr
          hintmask 11011110
          -86 callgsubr
          hintmask 00100000
          -54 225 -97 callgsubr
        </CharString>
        <CharString name="Tcedilla">
          -218 43 175 47 callsubr
          hstemhm
          112 51 81 51 24 50 -37 51 146 51 hintmask 01111010
          580 503 rmoveto
          50 callgsubr
          -405 hlineto
          -25 -8 -6 -26 -4 hvcurveto
          -13 -76 -34 callsubr
          26 71 callsubr
          11 66 rlineto
          158 -36 callsubr
          -64 -54 callsubr
          64 hlineto
          -1 -3 -1 -4 -3 vvcurveto
          -5 -28 -3 -16 -2 -16 24 -1 rlinecurve
          hintmask 11001100
          22 callgsubr
          6 37 -20 40 -73 15 2 13 2 10 1 8 rrcurveto
          65 19 callgsubr
          hintmask 00100011
          86 callgsubr
          157 32 callgsubr
          endchar
        </CharString>
        <CharString name="Tdotbelow">
          61 callgsubr
          hstemhm
          112 51 31 82 -32 51 37 51 146 51 hintmask 01110111
          -86 callgsubr
          hintmask 10001000
          -304 -668 -98 callgsubr
        </CharString>
        <CharString name="Theta">
          -11 42 250 49 250 42 hstemhm
          110 51 57 51 -43 51 72 51 -43 51 57 51 cntrmask 1110000000000000
          hintmask 1111010110000000
          516 305 rmoveto
          288 48 -14 29 -184 hhcurveto
          -184 -24 -28 -289 -48 hvcurveto
          -288 -48 14 -28 184 186 callgsubr
          -51 1 rmoveto
          -10 -59 -13 -80 -19 -50 rrcurveto
          -62 -25 -28 -24 -103 hhcurveto
          -100 -26 21 72 -1 110 callsubr
          -65 -25 rmoveto
          8 49 rlineto
          15 3 2 17 -26 hhcurveto
          -8 -15 0 -32 -7 hvcurveto
          -80 hlineto
          31 3 -14 1 -9 hhcurveto
          -26 -2 -17 -15 -3 hvcurveto
          hintmask 1110101000000000
          -8 -49 rlineto
          -15 -3 -2 -17 26 hhcurveto
          8 15 0 32 7 hvcurveto
          80 hlineto
          -31 -3 14 -1 9 hhcurveto
          26 71 callsubr
          endchar
        </CharString>
        <CharString name="Thorn">
          0 42 85 43 272 43 84 42 hstem
          518 306 168 callsubr
          -140 hlineto
          14 84 rlineto
          36 -72 callgsubr
          -123 -45 callsubr
          36 -36 callsubr
          -36 hlineto
          -12 -19 0 -21 -3 hvcurveto
          -21 -4 20 0 11 -67 callgsubr
          14 85 56 callsubr
          46 272 218 callsubr
          -77 -59 -10 hvcurveto
          endchar
        </CharString>
        <CharString name="Tlinebelow">
          -172 44 128 47 callsubr
          229 callsubr
          hintmask 01111110
          -86 callgsubr
          hintmask 10000000
          -157 -654 -72 callsubr
        </CharString>
        <CharString name="U">
          94 callsubr
          hstem
          137 callgsubr
          203 51 10 51 vstem
          -105 callgsubr
          endchar
        </CharString>
        <CharString name="U_uni032F">
          -177 -21 51 45 91 128 callsubr
          35 callsubr
          hintmask 00111111
          -105 callgsubr
          hintmask 11000000
          -210 -766 -5 callgsubr
        </CharString>
        <CharString name="Uacute">
          187 callsubr
          118 -20 35 callsubr
          hintmask 11001111
          -105 callgsubr
          hintmask 00110001
          -127 175 -104 callsubr
        </CharString>
        <CharString name="Ubreve">
          94 callsubr
          62 45 51 -20 35 callsubr
          hintmask 11001111
          -105 callgsubr
          hintmask 00110000
          -57 157 -89 callsubr
          endchar
        </CharString>
        <CharString name="Ucaron">
          94 callsubr
          139 -20 35 callsubr
          hintmask 11011110
          -105 callgsubr
          hintmask 00100000
          -90 138 -97 callgsubr
        </CharString>
        <CharString name="Ucircumflex">
          94 callsubr
          73 -21 35 callsubr
          hintmask 11011110
          -105 callgsubr
          hintmask 00100000
          -97 95 -106 callgsubr
          endchar
        </CharString>
        <CharString name="Udblgrave">
          187 callsubr
          125 -20 35 callsubr
          hintmask 11001111
          -105 callgsubr
          hintmask 00110000
          -71 113 -76 callsubr
        </CharString>
        <CharString name="Udieresis">
          94 callsubr
          52 72 132 callgsubr
          hintmask 1101101010000000
          -105 callgsubr
          hintmask 0010010100000000
          14 callsubr
          endchar
        </CharString>
        <CharString name="Udieresisacute">
          94 callsubr
          52 72 82 -21 118 178 callgsubr
          hintmask 1100011010100000
          -105 callgsubr
          hintmask 0010000101000000
          14 callsubr
          -5 189 rmoveto
          hintmask 0001100000100000
          -105 callsubr
        </CharString>
        <CharString name="Udieresiscaron">
          94 callsubr
          52 72 138 178 callgsubr
          hintmask 1100110101000000
          -105 callgsubr
          hintmask 0011001010000000
          14 callsubr
          32 152 -97 callgsubr
        </CharString>
        <CharString name="Udieresisgrave">
          94 callsubr
          52 72 82 -21 118 178 callgsubr
          hintmask 1100011010100000
          -105 callgsubr
          hintmask 0011100101000000
          14 callsubr
          -16 128 rmoveto
          -79 callsubr
        </CharString>
        <CharString name="Udotbelow">
          -207 83 113 128 callsubr
          hstemhm
          137 callgsubr
          -31 82 152 51 10 51 hintmask 01111011
          -105 callgsubr
          hintmask 10000100
          -340 -755 -98 callgsubr
        </CharString>
        <CharString name="Ugrave">
          187 callsubr
          118 -20 35 callsubr
          hintmask 11001111
          -105 callgsubr
          hintmask 00110000
          -138 114 rmoveto
          -79 callsubr
        </CharString>
        <CharString name="Uhookabove">
          94 callsubr
          63 68 callgsubr
          137 callgsubr
          82 115 callgsubr
          24 51 10 51 hintmask 1100110000110000
          -105 callgsubr
          hintmask 0001001001000000
          -125 229 -68 callsubr
          hintmask 0010000010000000
          44 callsubr
          hintmask 0000000100000000
          -4 -19 rlineto
          hintmask 0010000001000000
          135 callsubr
          hintmask 0000000100000000
          134 callsubr
          hintmask 0010000010000000
          12 callsubr
        </CharString>
        <CharString name="Uhorn">
          94 callsubr
          103 -20 hstem
          119 callgsubr
          vstem
          633 655 rmoveto
          5 26 -4 32 -33 1 -82 callgsubr
          endchar
        </CharString>
        <CharString name="Uhornacute">
          -16 callsubr
          -173 110 -104 callsubr
        </CharString>
        <CharString name="Uhorndotbelow">
          -207 83 113 128 callsubr
          103 -20 hstemhm
          112 52 9 52 -31 82 91 52 8 52 9 52 hintmask 0111110111000000
          633 655 rmoveto
          5 26 -4 32 -33 1 -82 callgsubr
          hintmask 1000001000000000
          -357 -820 -98 callgsubr
        </CharString>
        <CharString name="Uhorngrave">
          -16 callsubr
          -184 49 rmoveto
          -79 callsubr
        </CharString>
        <CharString name="Uhornhookabove">
          94 callsubr
          63 37 3 -20 160 37 hstemhm
          112 52 9 52 82 115 callgsubr
          -37 52 8 52 9 52 hintmask 1101011000011100
          633 655 rmoveto
          5 26 -4 32 -33 1 -82 callgsubr
          hintmask 0000100100100000
          -142 164 -68 callsubr
          hintmask 0010000001000000
          44 callsubr
          hintmask 0000000010000000
          -4 -19 rlineto
          hintmask 0010000000010000
          135 callsubr
          hintmask 0000000010000000
          134 callsubr
          hintmask 0010000001000000
          12 callsubr
        </CharString>
        <CharString name="Uhorntilde">
          94 callsubr
          52 46 5 -20 25 47 hstemhm
          119 callgsubr
          hintmask 1101011111000000
          633 655 rmoveto
          5 26 -4 32 -33 1 4 callsubr
          -104 88 -107 callsubr
          16 85 callsubr
          -9 -54 callgsubr
          15 17 25 hvcurveto
          20 13 33 22 2 13 rrcurveto
          endchar
        </CharString>
        <CharString name="Uhungarumlaut">
          187 callsubr
          125 -20 35 callsubr
          hintmask 11001111
          -105 callgsubr
          hintmask 00110010
          -258 181 rmoveto
          -25 callsubr
          201 hmoveto
          -25 callsubr
          endchar
        </CharString>
        <CharString name="Umacron">
          94 callsubr
          72 44 35 callsubr
          hintmask 11011110
          -105 callgsubr
          hintmask 00100000
          -51 114 -41 callgsubr
        </CharString>
        <CharString name="Uogonek">
          110 callgsubr
          702 42 hstemhm
          113 51 -31 40 1 51 25 51 -50 51 126 51 10 51 hintmask 0011011011000000
          616 590 rmoveto
          21 96 callsubr
          -133 hlineto
          -11 -21 -65 callgsubr
          21 0 11 hhcurveto
          41 hlineto
          -61 -363 rlineto
          -119 -19 -84 -56 -58 hhcurveto
          -59 -63 56 119 19 hvcurveto
          61 363 rlineto
          41 hlineto
          11 21 0 21 3 hvcurveto
          37 callsubr
          -133 hlineto
          -12 -20 0 -21 -4 hvcurveto
          hintmask 0010110000000000
          62 callgsubr
          41 hlineto
          hintmask 0001000100000000
          -61 -368 -19 -112 51 -81 106 -17 rlinecurve
          hintmask 1000101000000000
          -50 -39 -23 -39 -5 -35 82 callgsubr
          5 6 2 12 -6 5 rrcurveto
          hintmask 0110000111000000
          69 callgsubr
          8 47 38 48 44 27 88 21 71 75 18 107 61 368 rcurveline
          41 hlineto
          12 108 callsubr
          endchar
        </CharString>
        <CharString name="Upsilon">
          0 42 547 33 hstemhm
          124 50 24 50 -4 51 2 51 hintmask 01110100
          566 499 rmoveto
          54 9 -27 69 -69 hhcurveto
          -57 -40 -37 -136 -44 hvcurveto
          135 3 -35 38 -53 hhcurveto
          -68 -52 -68 -55 -9 hvcurveto
          -22 -3 18 0 7 hhcurveto
          8 17 0 22 3 hvcurveto
          45 8 24 45 42 hhcurveto
          81 -23 -174 -57 -9 hvcurveto
          hintmask 10001000
          -53 -316 rlineto
          hintmask 10010000
          121 callgsubr
          hintmask 11001100
          -46 hlineto
          53 316 rlineto
          58 9 35 173 80 hhcurveto
          44 7 -49 -39 -6 hvcurveto
          -24 -4 16 0 9 hhcurveto
          7 18 0 22 3 hvcurveto
          endchar
        </CharString>
        <CharString name="Uring">
          94 callsubr
          12 37 70 37 hstemhm
          137 callgsubr
          52 50 101 51 -48 50 8 51 hintmask 1100110101000000
          -105 callgsubr
          hintmask 0011001010000000
          -185 104 75 callgsubr
          -13 callsubr
          endchar
        </CharString>
        <CharString name="Utilde">
          94 callsubr
          52 46 10 47 35 callsubr
          hintmask 11001111
          -105 callgsubr
          hintmask 00110001
          -58 153 -107 callsubr
          16 85 callsubr
          -9 -54 callgsubr
          15 17 25 hvcurveto
          20 13 33 22 2 13 rrcurveto
          endchar
        </CharString>
        <CharString name="V">
          -8 42 535 42 hstem
          602 590 rmoveto
          37 callsubr
          -106 hlineto
          -11 -21 -65 callsubr
          42 hhcurveto
          -218 -535 -7 -1 -41 536 rlineto
          42 33 callgsubr
          -21 0 -11 hhcurveto
          -106 hlineto
          -11 -21 -65 callsubr
          38 hhcurveto
          47 -546 rlineto
          -31 3 14 0 25 hhcurveto
          23 16 0 30 13 hvcurveto
          229 547 rlineto
          38 19 0 21 3 hvcurveto
          endchar
        </CharString>
        <CharString name="W">
          -8 42 535 42 hstem
          -77 callsubr
          endchar
        </CharString>
        <CharString name="Wacute">
          -8 42 535 42 83 165 callsubr
          hstemhm
          hintmask 11000000
          -77 callsubr
          hintmask 00110000
          -120 176 -104 callsubr
        </CharString>
        <CharString name="Wcircumflex">
          -8 42 535 42 73 -21 hstemhm
          hintmask 11000000
          -77 callsubr
          hintmask 00100000
          -90 96 -106 callgsubr
          endchar
        </CharString>
        <CharString name="Wdieresis">
          -8 42 535 42 52 207 callsubr
          hintmask 11000000
          -77 callsubr
          hintmask 00111000
          -295 110 -95 callgsubr
          endchar
        </CharString>
        <CharString name="Wgrave">
          -8 42 535 42 83 165 callsubr
          hstemhm
          hintmask 11000000
          -77 callsubr
          hintmask 00110000
          -131 115 rmoveto
          -79 callsubr
        </CharString>
        <CharString name="X">
          -9 callsubr
        </CharString>
        <CharString name="Xi">
          0 40 258 40 233 40 hstemhm
          133 51 -13 50 188 50 -31 51 0 50 hintmask 01110001
          577 559 rmoveto
          4 20 rlineto
          24 4 -3 8 -27 hhcurveto
          -381 hlineto
          -26 -7 -6 -26 -4 hvcurveto
          -4 -20 -34 callsubr
          25 3 16 28 4 hvcurveto
          344 hlineto
          -28 -4 -3 -16 25 hhcurveto
          25 3 18 14 2 hvcurveto
          -118 -266 rmoveto
          8 50 rlineto
          15 3 2 16 -26 hhcurveto
          -18 -8 -7 -29 -5 hvcurveto
          hintmask 01001000
          -194 hlineto
          29 5 -6 7 -18 hhcurveto
          -26 -2 -16 -15 -3 hvcurveto
          -8 -50 rlineto
          hintmask 01010100
          -16 -3 -2 -15 26 hhcurveto
          18 8 7 29 5 hvcurveto
          194 hlineto
          hintmask 00000010
          -29 -5 6 -7 18 hhcurveto
          hintmask 10000101
          26 2 15 16 3 hvcurveto
          34 -261 rmoveto
          5 25 52 callsubr
          -24 hhcurveto
          -26 -3 -16 -33 -5 hvcurveto
          -352 hlineto
          33 5 3 16 -26 hhcurveto
          -24 -3 -18 -14 -2 hvcurveto
          -5 -25 rlineto
          -26 -4 5 -6 26 hhcurveto
          389 160 callsubr
        </CharString>
        <CharString name="Y">
          40 callgsubr
          179 callgsubr
          -17 51 hintmask 01010000
          -70 callsubr
          hintmask 10100000
          -33 callsubr
          hintmask 01010000
          21 callgsubr
          endchar
        </CharString>
        <CharString name="Yacute">
          40 callgsubr
          83 165 callsubr
          179 callgsubr
          -17 51 hintmask 01000100
          -70 callsubr
          hintmask 10001000
          -33 callsubr
          hintmask 01000100
          21 callgsubr
          hintmask 00110000
          -112 176 -104 callsubr
        </CharString>
        <CharString name="Ycircumflex">
          40 callgsubr
          73 -21 179 callgsubr
          -17 51 hintmask 01001000
          -70 callsubr
          hintmask 10010000
          -33 callsubr
          hintmask 01001000
          21 callgsubr
          hintmask 00100000
          -82 96 -106 callgsubr
          endchar
        </CharString>
        <CharString name="Ydieresis">
          40 callgsubr
          52 72 hstemhm
          242 72 -70 51 -17 51 114 72 hintmask 01000100
          -70 callsubr
          hintmask 10001000
          -33 callsubr
          hintmask 01000100
          21 callgsubr
          hintmask 00110010
          -287 110 -95 callgsubr
          endchar
        </CharString>
        <CharString name="Ydotbelow">
          181 callgsubr
          -17 51 hintmask 00100100
          -70 callsubr
          hintmask 01001000
          -33 callsubr
          hintmask 00100100
          21 callgsubr
          hintmask 10010000
          -325 -754 -98 callgsubr
        </CharString>
        <CharString name="Ygrave">
          40 callgsubr
          83 165 callsubr
          179 callgsubr
          -17 51 hintmask 01000100
          -70 callsubr
          hintmask 10001000
          -33 callsubr
          hintmask 01000100
          21 callgsubr
          hintmask 00110000
          -123 115 rmoveto
          -79 callsubr
        </CharString>
        <CharString name="Yhookabove">
          40 callgsubr
          63 68 callgsubr
          244 51 -17 51 -22 115 callgsubr
          hintmask 0100010000000000
          -70 callsubr
          hintmask 1000100000000000
          -33 callsubr
          hintmask 0100010000000000
          21 callgsubr
          hintmask 0001001001000000
          -110 230 -68 callsubr
          hintmask 0010000010000000
          44 callsubr
          hintmask 0000000100000000
          -4 -19 rlineto
          hintmask 0010000001000000
          135 callsubr
          hintmask 0000000100000000
          134 callsubr
          hintmask 0010000010000000
          12 callsubr
        </CharString>
        <CharString name="Ytilde">
          40 callgsubr
          52 46 10 47 179 callgsubr
          -17 51 hintmask 01000100
          -70 callsubr
          hintmask 10001000
          -33 callsubr
          hintmask 01000100
          21 callgsubr
          hintmask 00111000
          -43 154 -107 callsubr
          16 85 callsubr
          -9 -54 callgsubr
          15 17 25 hvcurveto
          20 13 33 22 2 13 rrcurveto
          endchar
        </CharString>
        <CharString name="Z">
          40 callgsubr
          hstem
          151 callgsubr
          vstem
          -71 callgsubr
          endchar
        </CharString>
        <CharString name="Zacute">
          40 callgsubr
          83 165 callsubr
          hstemhm
          151 callgsubr
          hintmask 11001111
          -71 callgsubr
          hintmask 00110000
          6 733 -104 callsubr
        </CharString>
        <CharString name="Zcaron">
          149 callsubr
          151 callgsubr
          hintmask 11011110
          -71 callgsubr
          hintmask 00100010
          43 696 -97 callgsubr
        </CharString>
        <CharString name="Zdotaccent">
          40 callgsubr
          63 83 hstemhm
          69 51 27 51 143 82 25 51 7 51 hintmask 11011011
          -71 callgsubr
          hintmask 00100100
          -60 683 -14 callgsubr
        </CharString>
        <CharString name="Zdotbelow">
          61 callgsubr
          hstemhm
          69 51 27 51 -4 82 172 51 7 51 hintmask 01111011
          -71 callgsubr
          hintmask 10000100
          -207 -197 -98 callgsubr
        </CharString>
        <CharString name="Zeta">
          40 callgsubr
          hstem
          151 callgsubr
          vstem
          -71 callgsubr
          endchar
        </CharString>
        <CharString name="a">
          37 callgsubr
          -103 callgsubr
          endchar
        </CharString>
        <CharString name="aacute">
          37 callgsubr
          92 -21 117 -92 callsubr
          66 371 -100 callsubr
        </CharString>
        <CharString name="abreve">
          37 callgsubr
          82 45 51 -92 callsubr
          137 364 -57 callsubr
        </CharString>
        <CharString name="abreveacute">
          37 callgsubr
          82 45 189 -92 callsubr
          137 364 -89 callsubr
          -50 134 rmoveto
          15 2 -9 11 -15 hhcurveto
          0 -6 0 -10 -4 vhcurveto
          177 callgsubr
          167 callgsubr
        </CharString>
        <CharString name="abrevedotbelow">
          137 callsubr
          41 callsubr
          82 45 51 -20 -30 callsubr
          hintmask 01001100
          -19 -42 -49 0 -8 hhcurveto
          -71 -39 41 45 7 hvcurveto
          9 53 99 46 169 5 rrcurveto
          137 364 -55 callsubr
          hintmask 10000010
          -257 -755 -98 callgsubr
        </CharString>
        <CharString name="abrevegrave">
          37 callgsubr
          82 45 51 -92 callsubr
          137 364 -89 callsubr
          -60 73 rmoveto
          -6 -1 -9 -25 -20 hhcurveto
          0 -4 1 -2 1 vhcurveto
          -134 64 -17 8 -3 240 callgsubr
          15 2 0 callsubr
          9 -4 -2 -12 rlinecurve
          endchar
        </CharString>
        <CharString name="abrevehookabove">
          37 callgsubr
          82 45 51 68 callgsubr
          298 142 callgsubr
          -52 callsubr
          hintmask 1000000100000000
          -19 -42 -49 0 -8 hhcurveto
          -71 -39 41 45 7 hvcurveto
          9 53 99 46 169 5 rrcurveto
          hintmask 0001100000100000
          137 364 -12 callsubr
        </CharString>
        <CharString name="abrevetilde">
          37 callgsubr
          82 45 91 46 10 47 -103 callgsubr
          hintmask 00011100
          137 364 -66 callsubr
        </CharString>
        <CharString name="acaron">
          37 callgsubr
          187 -20 -103 callgsubr
          hintmask 00010000
          110 373 -88 callsubr
        </CharString>
        <CharString name="acircumflex">
          37 callgsubr
          93 -21 -103 callgsubr
          hintmask 00010000
          98 302 -94 callsubr
          endchar
        </CharString>
        <CharString name="acircumflexacute">
          37 callgsubr
          93 -21 224 -92 callsubr
          97 302 -106 callgsubr
          -15 176 -104 callsubr
        </CharString>
        <CharString name="acircumflexdotbelow">
          137 callsubr
          41 callsubr
          93 -21 -30 callsubr
          hintmask 01001000
          -19 -42 -49 0 -8 hhcurveto
          -71 -39 41 45 7 hvcurveto
          9 53 99 46 169 5 rrcurveto
          98 302 -94 callsubr
          hintmask 10000100
          -218 -693 -98 callgsubr
        </CharString>
        <CharString name="acircumflexgrave">
          37 callgsubr
          93 -21 -103 callgsubr
          hintmask 00010000
          97 302 -106 callgsubr
          -25 115 rmoveto
          -6 -1 -8 -25 -20 hhcurveto
          0 -5 1 -2 1 vhcurveto
          -133 64 -18 8 -2 239 callsubr
          15 3 0 callsubr
          8 -4 -2 -12 rlinecurve
          endchar
        </CharString>
        <CharString name="acircumflexhookabove">
          37 callgsubr
          72 56 callgsubr
          -52 callsubr
          hintmask 1000000000000000
          -19 -42 -49 0 -8 hhcurveto
          -71 -39 41 45 7 hvcurveto
          9 53 99 46 169 5 rrcurveto
          hintmask 0000100100000000
          97 302 -58 callgsubr
        </CharString>
        <CharString name="acircumflextilde">
          37 callgsubr
          93 -21 37 47 42 46 10 47 -103 callgsubr
          hintmask 00011110
          97 302 -106 callgsubr
          59 184 -107 callsubr
          16 85 callsubr
          -9 -54 callgsubr
          15 17 25 hvcurveto
          20 13 33 22 2 13 rrcurveto
          endchar
        </CharString>
        <CharString name="acute">
          526 123 callgsubr
          hstem
          462 597 -100 callsubr
        </CharString>
        <CharString name="acute.cap">
          513 165 callsubr
          hstem
          459 584 -104 callsubr
        </CharString>
        <CharString name="acute.dup">
          526 123 callgsubr
          hstem
          462 597 -100 callsubr
        </CharString>
        <CharString name="acute.ts1">
          515 123 callgsubr
          hstem
          500 586 73 callsubr
        </CharString>
        <CharString name="adblgrave">
          37 callgsubr
          88 -21 125 -92 callsubr
          121 305 -80 callsubr
        </CharString>
        <CharString name="adieresis">
          37 callgsubr
          93 188 callsubr
          -106 callsubr
          hintmask 00011100
          -89 337 -48 callgsubr
        </CharString>
        <CharString name="adotbelow">
          137 callsubr
          41 callsubr
          -30 callsubr
          hintmask 01000000
          -19 -42 -49 0 -8 hhcurveto
          -71 -39 41 45 7 hvcurveto
          9 53 99 46 169 5 rrcurveto
          hintmask 10001000
          -120 -391 -98 callgsubr
        </CharString>
        <CharString name="ae">
          -6 42 24 42 95 42 153 42 hstem
          55 37 13 37 84 37 241 37 vstem
          -59 callgsubr
          endchar
        </CharString>
        <CharString name="ae.dup">
          -6 42 24 42 95 42 153 42 hstem
          55 37 13 37 84 37 241 37 vstem
          -59 callgsubr
          endchar
        </CharString>
        <CharString name="aeacute">
          -6 42 24 42 95 42 153 42 92 109 callsubr
          55 37 13 37 84 37 241 37 hintmask 1111001111000000
          -59 callgsubr
          hintmask 0000110000000000
          185 401 -100 callsubr
        </CharString>
        <CharString name="agrave">
          37 callgsubr
          92 -21 117 -92 callsubr
          54 310 rmoveto
          -66 callgsubr
        </CharString>
        <CharString name="ahookabove">
          37 callgsubr
          21 87 callgsubr
          -52 callsubr
          hintmask 1000000000000000
          -19 -42 -49 0 -8 hhcurveto
          -71 -39 41 45 7 hvcurveto
          9 53 99 46 169 5 rrcurveto
          hintmask 0001110101000000
          58 374 -78 callgsubr
          hintmask 0001001000000000
          -45 callgsubr
          hintmask 0001000110000000
          101 callgsubr
          16 19 4 22 rrcurveto
          endchar
        </CharString>
        <CharString name="amacron">
          37 callgsubr
          108 44 -103 callgsubr
          hintmask 00010000
          146 337 -72 callsubr
        </CharString>
        <CharString name="ampersand">
          -11 42 352 42 155 42 hstemhm
          52 51 50 37 -1 37 109 37 hintmask 01100110
          554 403 20 callsubr
          -95 -73 callsubr
          28 hhcurveto
          -48 -88 -49 -90 -49 -71 -16 38 -34 74 -11 54 123 110 11 58 4 23 rrcurveto
          58 10 -6 73 -67 hhcurveto
          -48 -57 -44 -95 -15 hvcurveto
          hintmask 11011000
          -8 -44 -2 -57 11 -69 -84 -77 rcurveline
          -25 -26 -22 -34 -7 -45 rrcurveto
          -73 -12 32 -69 73 hhcurveto
          51 44 31 47 46 hvcurveto
          -28 20 33 -50 55 hhcurveto
          62 37 64 45 7 hvcurveto
          4 23 -18 1 0 vvcurveto
          -13 -5 -9 -7 -2 hvcurveto
          -61 -16 -29 -14 -20 hhcurveto
          -41 -35 51 19 -11 hvcurveto
          32 41 28 47 15 26 92 168 rcurveline
          39 hlineto
          12 19 0 20 3 hvcurveto
          -219 88 rmoveto
          -5 -31 -26 -40 -79 -75 rrcurveto
          hintmask 00100110
          -9 73 8 56 2 9 rrcurveto
          68 11 39 29 26 hhcurveto
          41 -6 -78 -11 -2 hvcurveto
          -67 -390 rmoveto
          hintmask 10011000
          -65 -57 -42 -5 -16 hhcurveto
          -52 -3 72 31 5 hvcurveto
          9 53 13 13 74 69 9 -31 13 -33 11 -24 16 -40 4 -10 16 -30 rrcurveto
          endchar
        </CharString>
        <CharString name="anglearc">
          105 -21 444 -20 hstemhm
          331 52 -42 52 -22 52 -18 52 -47 52 hintmask 00000010
          501 110 rmoveto
          2 10 -3 9 -9 3 -78 43 rcurveline
          27 48 15 41 7 42 rrcurveto
          hintmask 01000100
          7 42 -1 41 -11 48 92 43 rcurveline
          10 3 6 9 2 10 rrcurveto
          217 callgsubr
          -4 -3 0 -3 -4 hvcurveto
          -92 -42 rlineto
          hintmask 00001000
          -7 18 -6 9 -6 9 rrcurveto
          hintmask 01010100
          6 -3 -7 3 -8 hhcurveto
          -14 -14 -12 -14 -2 hvcurveto
          -1 -6 1 -6 2 -4 16 -25 rcurveline
          -283 -132 -10 -4 -6 -9 -2 -10 rlinecurve
          -2 -10 4 -9 8 -4 239 -132 rcurveline
          -24 -25 -4 -4 -3 -6 -1 -6 rlinecurve
          hintmask 10100000
          -14 -2 10 -12 14 hhcurveto
          8 8 3 6 5 hvcurveto
          9 9 9 9 13 18 78 -42 rcurveline
          -3 3 3 0 4 hhcurveto
          14 14 12 14 2 hvcurveto
          -91 196 rmoveto
          hintmask 00001000
          -5 -33 -11 -33 -23 -41 -196 107 rcurveline
          232 107 rlineto
          hintmask 00000010
          9 -41 0 -33 -6 -33 rrcurveto
          endchar
        </CharString>
        <CharString name="angleleft">
          -65 -21 784 -20 hstem
          435 -60 rmoveto
          1 6 -4 9 -3 8 -164 343 rcurveline
          278 343 7 8 6 9 1 6 rlinecurve
          2 14 -9 11 -13 1 rrcurveto
          -10 -12 -8 -18 -15 hvcurveto
          -298 -367 176 -365 rlineto
          -18 8 11 -8 10 hhcurveto
          13 1 13 11 2 14 rrcurveto
          endchar
        </CharString>
        <CharString name="angleright">
          -67 -21 784 -20 hstem
          422 305 rmoveto
          -176 365 rlineto
          18 -8 -11 8 -10 hhcurveto
          -13 -1 -13 -11 -2 -14 -1 -6 3 -9 4 -8 164 -343 rcurveline
          -279 -343 -6 -8 -6 -9 -1 -6 rlinecurve
          -3 -14 9 -11 13 -1 rrcurveto
          10 13 8 18 15 hvcurveto
          endchar
        </CharString>
        <CharString name="aogonek">
          -210 35 169 41 callsubr
          -15 callsubr
          endchar
        </CharString>
        <CharString name="aogonekacute">
          -210 35 169 41 callsubr
          92 -21 117 -20 -15 callsubr
          hintmask 00001100
          66 371 -100 callsubr
        </CharString>
        <CharString name="aring">
          37 callgsubr
          58 37 70 37 hstemhm
          255 50 104 50 -106 callsubr
          hintmask 00011110
          13 337 75 callgsubr
          -28 callgsubr
          endchar
        </CharString>
        <CharString name="aringacute">
          37 callgsubr
          58 186 callsubr
          255 50 -4 50 58 50 -52 callsubr
          hintmask 1000000000000000
          -19 -42 -49 0 -8 hhcurveto
          -71 -39 41 45 7 hvcurveto
          9 53 99 46 169 5 rrcurveto
          hintmask 0001000100000000
          13 337 75 callgsubr
          hintmask 0001111010000000
          -28 callgsubr
          28 185 203 callgsubr
          hintmask 0000000100000000
          177 callgsubr
          hintmask 0000001010000000
          167 callgsubr
        </CharString>
        <CharString name="asciicircum">
          525 -21 hstem
          539 525 rmoveto
          1 8 -11 9 -9 5 -135 70 rcurveline
          -14 7 -14 0 -16 -7 -159 -70 rcurveline
          -11 -5 -13 -9 -1 -8 rrcurveto
          -12 -2 5 -9 17 hhcurveto
          6 14 5 5 12 hvcurveto
          147 60 127 -60 rlineto
          -5 10 12 -5 6 hhcurveto
          17 9 9 12 2 hvcurveto
          endchar
        </CharString>
        <CharString name="asciitilde">
          254 46 11 46 hstem
          490 334 -107 callsubr
          17 85 callsubr
          -10 -54 callgsubr
          16 16 25 hvcurveto
          20 13 33 22 2 13 rrcurveto
          endchar
        </CharString>
        <CharString name="asciitilde.low">
          0 47 10 46 hstem
          448 81 rmoveto
          11 1 -9 11 -11 hhcurveto
          -8 -5 -4 -4 -6 hvcurveto
          -32 -39 -33 -16 -15 hhcurveto
          -13 -9 9 29 -27 hvcurveto
          10 -10 -14 8 -20 hhcurveto
          -25 -29 -15 -17 -25 hvcurveto
          -20 -13 -33 -22 -2 -13 rrcurveto
          -12 -2 9 -11 11 hhcurveto
          8 6 4 5 6 hvcurveto
          31 39 33 17 85 callsubr
          -10 -29 27 hvcurveto
          -9 11 13 -9 20 hhcurveto
          26 29 16 16 24 hvcurveto
          21 14 32 21 3 14 rrcurveto
          endchar
        </CharString>
        <CharString name="asterisk">
          -3 callsubr
        </CharString>
        <CharString name="asterisk.math">
          -3 callsubr
        </CharString>
        <CharString name="at">
          -6 42 74 42 307 42 74 42 hstem
          98 37 115 37 vstem
          489 72 rmoveto
          19 3 -22 0 -7 hhcurveto
          -11 -4 0 -4 -5 hvcurveto
          -39 -49 -44 -12 -38 hhcurveto
          -116 -87 116 153 26 hvcurveto
          161 27 128 109 111 hhcurveto
          32 49 -11 -99 22 hvcurveto
          19 -27 -23 17 -32 hhcurveto
          -78 -76 -85 -110 -18 hvcurveto
          -116 -19 52 -80 72 hhcurveto
          48 99 42 170 29 hvcurveto
          64 10 39 231 -172 hhcurveto
          -135 -145 -131 -180 -30 hvcurveto
          -179 -30 99 -133 139 hhcurveto
          87 91 50 28 5 hvcurveto
          2 233 rmoveto
          -91 -15 -64 -62 -49 hhcurveto
          -52 -39 66 87 15 hvcurveto
          94 16 64 60 47 hhcurveto
          51 41 -63 -91 -15 hvcurveto
          endchar
        </CharString>
        <CharString name="atilde">
          37 callgsubr
          78 46 11 46 -91 callsubr
          137 366 -107 callsubr
          17 85 callsubr
          -10 -54 callgsubr
          16 16 25 hvcurveto
          20 13 33 22 2 13 rrcurveto
          endchar
        </CharString>
        <CharString name="b">
          -6 42 353 42 138 42 hstem
          112 50 309 50 vstem
          73 callgsubr
          36 212 -101 callsubr
          -90 -537 rlineto
          -15 -2 -3 -17 26 hhcurveto
          24 3 17 45 7 hvcurveto
          27 callsubr
          102 callsubr
        </CharString>
        <CharString name="backslash">
          209 callgsubr
          hstem
          453 -60 rmoveto
          1 7 -3 8 -2 5 -222 715 rcurveline
          8 -3 -5 14 -16 hhcurveto
          -15 -13 -13 -13 -2 hvcurveto
          -1 -7 2 -8 3 -5 222 -715 rcurveline
          -8 3 5 -14 16 hhcurveto
          14 14 13 13 2 hvcurveto
          endchar
        </CharString>
        <CharString name="baht">
          -75 -21 96 114 callgsubr
          96 -20 hstem
          191 50 -8 50 -8 50 cntrmask 00000111
          506 162 rmoveto
          11 67 -26 63 -109 27 101 32 41 50 10 60 rrcurveto
          71 12 -46 79 -108 hhcurveto
          -14 hlineto
          12 74 rlineto
          12 2 -7 10 -12 hhcurveto
          -13 -12 64 callsubr
          -12 -74 rlineto
          -176 hlineto
          -10 159 callgsubr
          39 -36 callsubr
          -39 -85 callgsubr
          10 hhcurveto
          177 hlineto
          -12 -74 rlineto
          -12 -2 7 -10 13 hhcurveto
          12 10 -5 callsubr
          12 74 rlineto
          36 hlineto
          110 72 86 76 13 hvcurveto
          -22 298 rmoveto
          -7 -43 -41 -66 -103 -12 38 230 rcurveline
          106 13 -71 -38 -6 hvcurveto
          -194 -121 rmoveto
          -87 hlineto
          117 callsubr
          87 hlineto
          127 -405 rmoveto
          -55 -9 -54 -67 -97 hhcurveto
          -13 hlineto
          43 255 rlineto
          7 hlineto
          96 36 -82 -51 -9 hvcurveto
          -215 -122 rmoveto
          -87 hlineto
          43 255 rlineto
          87 hlineto
          endchar
        </CharString>
        <CharString name="bar">
          209 callgsubr
          hstem
          228 52 66 52 vstem
          280 -48 rmoveto
          118 707 rlineto
          9 1 5 29 -26 hhcurveto
          -26 -5 -29 -9 -1 hvcurveto
          -118 -707 183 callsubr
        </CharString>
        <CharString name="bigcircle">
          0 19 484 19 hstem
          45 19 485 19 vstem
          -51 callgsubr
          endchar
        </CharString>
        <CharString name="blanksymbol">
          -6 42 353 42 0 42 96 42 hstemhm
          112 50 309 50 hintmask 10111100
          73 callgsubr
          16 92 138 103 5 4 4 6 1 6 rlinecurve
          154 callsubr
          -6 -5 -2 -3 -4 hvcurveto
          -106 -79 11 63 -101 callsubr
          -16 -96 -93 -70 -5 -3 -3 -6 -1 -6 rlinecurve
          -12 -2 8 -10 12 hhcurveto
          5 5 2 3 5 hvcurveto
          59 44 -64 -383 rlineto
          -15 -2 -3 -17 26 hhcurveto
          24 3 17 45 7 hvcurveto
          27 callsubr
          hintmask 01000100
          102 callsubr
        </CharString>
        <CharString name="braceleft">
          -86 42 329 42 327 43 hstem
          244 51 vstem
          453 -64 rmoveto
          17 3 -12 3 -8 hhcurveto
          -155 4 8 44 6 35 27 167 rcurveline
          4 23 4 39 -62 37 60 32 20 31 5 23 rrcurveto
          0 35 207 5 9 vhcurveto
          42 27 97 5 39 hhcurveto
          4 14 5 16 3 hvcurveto
          22 3 -20 0 -14 hhcurveto
          -68 -108 -10 -86 -32 hvcurveto
          -2 -6 -28 -172 0 vvcurveto
          -8 -43 -3 -17 -46 -19 rrcurveto
          -16 -41 -53 -1 -25 hhcurveto
          -4 -14 -5 -16 -3 hvcurveto
          -17 -3 11 -4 9 hhcurveto
          34 -2 119 -8 -8 -61 -29 -172 rcurveline
          -5 -28 -7 -43 45 -27 rrcurveto
          -23 38 54 -7 47 hhcurveto
          14 20 0 22 3 hvcurveto
          endchar
        </CharString>
        <CharString name="braceright">
          -86 43 327 42 328 43 hstem
          332 51 vstem
          515 305 rmoveto
          17 3 -11 4 -8 hhcurveto
          -33 2 -120 7 8 63 29 173 rcurveline
          5 26 7 43 -45 27 rrcurveto
          26 -43 -63 4 -35 hhcurveto
          -12 -21 0 -22 -3 hvcurveto
          -18 -3 13 -3 10 hhcurveto
          153 -2 -8 -44 -6 -37 -28 -167 rcurveline
          -6 -37 9 -30 52 -31 rrcurveto
          -74 -39 -11 -43 -4 vvcurveto
          -31 -184 -5 -32 -8 -45 -160 -2 rlinecurve
          -4 -14 -5 -16 -3 hvcurveto
          -22 -3 21 0 12 hhcurveto
          85 96 17 79 29 hvcurveto
          2 6 28 172 0 vvcurveto
          8 43 3 17 46 19 rrcurveto
          16 41 51 1 26 hhcurveto
          4 14 5 16 3 hvcurveto
          endchar
        </CharString>
        <CharString name="bracketleft">
          -86 43 697 43 hstem
          391 51 vstem
          469 -65 20 callsubr
          -167 hlineto
          116 697 rlineto
          167 -69 callgsubr
          22 3 -37 callsubr
          -187 hlineto
          -26 -6 -7 -25 -4 hvcurveto
          -120 -719 rlineto
          -24 -4 4 -8 26 hhcurveto
          187 hlineto
          11 108 callsubr
          endchar
        </CharString>
        <CharString name="bracketright">
          -86 43 697 43 hstem
          184 51 vstem
          284 -54 rmoveto
          120 719 85 callgsubr
          -187 208 callgsubr
          -3 hvcurveto
          -22 -4 54 callgsubr
          167 hlineto
          -116 -697 rlineto
          -167 161 callsubr
          -22 -3 54 callgsubr
          187 160 callsubr
        </CharString>
        <CharString name="breve">
          516 45 51 -20 hstem
          533 590 -57 callsubr
        </CharString>
        <CharString name="breve.cap">
          492 45 51 -20 hstem
          529 566 -89 callsubr
          endchar
        </CharString>
        <CharString name="breve.ts1">
          514 45 53 -20 hstem
          555 590 rmoveto
          14 3 -8 8 -13 hhcurveto
          -11 -8 -5 -6 -1 hvcurveto
          -33 -5 -108 -9 -48 hhcurveto
          -97 -55 9 33 5 hvcurveto
          6 1 -6 5 -11 hhcurveto
          -13 -10 -8 -14 -3 hvcurveto
          -11 -69 93 -6 100 -1 rrcurveto
          100 95 7 69 11 hvcurveto
          endchar
        </CharString>
        <CharString name="brokenbar">
          209 callgsubr
          hstemhm
          228 52 -10 52 -18 52 -10 52 hintmask 01000100
          356 410 rmoveto
          42 249 105 callsubr
          hintmask 00001000
          -42 -249 rlineto
          -13 -2 11 -8 14 hhcurveto
          14 13 8 13 2 hvcurveto
          -76 -458 rmoveto
          hintmask 00010000
          42 249 rlineto
          13 2 -11 8 -14 hhcurveto
          -14 -13 -8 -13 -2 hvcurveto
          hintmask 10100000
          -42 -249 183 callsubr
        </CharString>
        <CharString name="bullet">
          99 265 hstem
          170 264 118 callgsubr
          endchar
        </CharString>
        <CharString name="c">
          72 callgsubr
          hstem
          113 51 277 71 vstem
          -51 callsubr
          endchar
        </CharString>
        <CharString name="cacute">
          230 callsubr
          113 51 277 71 hintmask 11001100
          -51 callsubr
          hintmask 00110000
          9 495 -100 callsubr
        </CharString>
        <CharString name="caron">
          621 -20 hstem
          506 599 -88 callsubr
        </CharString>
        <CharString name="caron.cap">
          569 -20 hstem
          496 547 -97 callgsubr
        </CharString>
        <CharString name="caron.ts1">
          616 -20 hstem
          541 586 rmoveto
          12 2 -4 18 -17 hhcurveto
          -6 -15 -5 -5 -11 hvcurveto
          -137 -60 -117 60 rlineto
          5 -9 -13 5 -6 hhcurveto
          -17 -10 -18 -12 -2 hvcurveto
          -2 -8 10 -9 10 -5 127 -61 rcurveline
          14 -7 13 1 16 7 148 60 rcurveline
          12 5 12 9 2 8 rrcurveto
          endchar
        </CharString>
        <CharString name="ccaron">
          72 callgsubr
          187 -20 hstemhm
          113 51 277 71 hintmask 11011000
          -51 callsubr
          hintmask 00100000
          53 497 -88 callsubr
        </CharString>
        <CharString name="ccedilla">
          -215 43 166 101 callsubr
          hstemhm
          113 51 114 51 -46 50 33 51 24 71 hintmask 01110101
          173 callsubr
          6 -25 0 -4 hhcurveto
          -10 -6 -1 -7 -6 hvcurveto
          -23 -15 -33 -54 -81 hhcurveto
          -93 -66 77 100 17 hvcurveto
          53 8 51 126 148 hhcurveto
          26 46 -9 -11 -2 hvcurveto
          -28 -4 12 106 callsubr
          65 10 -101 0 -43 hhcurveto
          -170 -81 -134 -87 -14 hvcurveto
          -19 -113 67 -95 122 -11 rrcurveto
          hintmask 10001010
          -5 -29 -3 -16 -2 -16 23 -1 rlinecurve
          49 callgsubr
          13 79 -101 13 0 vvcurveto
          hintmask 00000100
          4 25 37 4 88 33 22 68 rlinecurve
          endchar
        </CharString>
        <CharString name="ccircumflex">
          72 callgsubr
          93 -21 hstemhm
          113 51 277 71 hintmask 11011000
          -51 callsubr
          hintmask 00100000
          41 426 -94 callsubr
          endchar
        </CharString>
        <CharString name="cdotaccent">
          72 callgsubr
          88 83 hstemhm
          113 51 179 82 16 71 hintmask 11010100
          -51 callsubr
          hintmask 00101000
          -55 461 -47 callgsubr
          endchar
        </CharString>
        <CharString name="cedilla">
          -215 43 hstem
          353 50 vstem
          403 -120 rmoveto
          6 37 -20 40 -73 15 rrcurveto
          38 7 2 16 -25 hhcurveto
          -26 -3 -18 -15 -2 hvcurveto
          -5 -28 -3 -16 -2 -16 24 -1 rlinecurve
          22 callgsubr
          endchar
        </CharString>
        <CharString name="cedilla.dup">
          -215 43 hstem
          353 50 vstem
          403 -120 rmoveto
          6 37 -20 40 -73 15 rrcurveto
          38 7 2 16 -25 hhcurveto
          -26 -3 -18 -15 -2 hvcurveto
          -5 -28 -3 -16 -2 -16 24 -1 rlinecurve
          22 callgsubr
          endchar
        </CharString>
        <CharString name="cent">
          -75 -21 617 -20 hstem
          267 51 -18 51 -18 51 cntrmask 00111000
          173 callsubr
          3 -22 0 -4 hhcurveto
          -10 -7 -1 -10 -8 hvcurveto
          -11 -19 -25 -45 -78 -10 59 356 rcurveline
          36 30 -11 -9 -2 hvcurveto
          -28 -4 12 106 callsubr
          10 62 -82 2 -56 1 11 65 rcurveline
          154 callsubr
          -12 -12 64 callsubr
          -11 -67 -147 -24 -67 -117 -13 -78 rlinecurve
          -18 -108 60 -91 112 -19 -11 -69 rcurveline
          -12 -2 8 -10 12 hhcurveto
          12 12 -5 callsubr
          11 68 122 12 45 81 2 15 rlinecurve
          -205 -63 rmoveto
          -81 24 -44 66 14 84 7 46 40 101 122 30 rrcurveto
          endchar
        </CharString>
        <CharString name="cent.oldstyle">
          -75 -21 90 42 355 42 -41 42 87 -20 hstemhm
          113 51 28 71 135 71 -28 71 hintmask 0110001100000000
          173 callsubr
          3 -22 0 -4 hhcurveto
          -10 -6 -1 -7 -6 hvcurveto
          -23 -15 -33 -54 -81 hhcurveto
          -11 -12 1 5 -20 hvcurveto
          135 349 rlineto
          hintmask 0000000010000000
          30 -2 14 -9 -1 -8 rrcurveto
          hintmask 0000000100000000
          -28 -4 12 -12 20 hhcurveto
          hintmask 0010100010000000
          154 callgsubr
          8 49 -50 10 -54 5 22 61 rcurveline
          14 7 -9 13 -14 hhcurveto
          hintmask 1101011100000000
          -10 -9 -8 -10 -5 hvcurveto
          -26 -68 -169 -9 -76 -129 -14 -84 rlinecurve
          -15 -85 36 -76 74 -40 -33 -82 rcurveline
          -14 -5 8 -12 14 hhcurveto
          11 9 7 10 4 hvcurveto
          31 77 rlineto
          -3 20 13 -1 13 hhcurveto
          134 50 92 16 3 hvcurveto
          -125 290 rmoveto
          -130 -334 -51 41 -21 53 11 61 rlinecurve
          8 48 44 112 139 19 rrcurveto
          endchar
        </CharString>
        <CharString name="centigrade">
          -10 42 440 40 69 40 -40 42 hstemhm
          91 38 20 50 0 38 -24 50 184 50 0 38 hintmask 1010000101000000
          518 167 rmoveto
          19 3 -11 3 -13 hhcurveto
          -13 -10 -4 -13 -5 hvcurveto
          -49 -13 -39 -91 -65 hhcurveto
          -59 -23 74 52 -9 hvcurveto
          -7 46 1 48 8 48 14 84 30 96 67 67 rrcurveto
          19 17 26 15 25 hhcurveto
          41 42 -65 -90 -14 hvcurveto
          -10 3 10 -1 11 hhcurveto
          22 5 15 14 2 hvcurveto
          25 151 rlineto
          hintmask 0001000001000000
          17 3 -4 11 -14 hhcurveto
          -17 -10 -15 -28 -12 hvcurveto
          hintmask 1001000110000000
          31 -33 -21 12 -34 hhcurveto
          -77 -56 -66 -63 -37 hvcurveto
          -33 -58 -20 -67 -11 -64 -17 -104 2 -144 88 -53 rrcurveto
          -10 15 18 -4 20 hhcurveto
          90 74 88 89 15 hvcurveto
          -281 379 rmoveto
          hintmask 0110110000000000
          166 callsubr
          hintmask 0110101000000000
          102 callgsubr
        </CharString>
        <CharString name="circumflex">
          527 -21 hstem
          494 528 -94 callsubr
          endchar
        </CharString>
        <CharString name="circumflex.cap">
          503 -21 hstem
          489 504 -106 callgsubr
          endchar
        </CharString>
        <CharString name="circumflex.dup">
          527 -21 hstem
          494 528 -94 callsubr
          endchar
        </CharString>
        <CharString name="colon">
          0 109 207 109 hstemhm
          217 109 -56 109 hintmask 11010000
          121 callsubr
          -53 -316 rmoveto
          216 callgsubr
          hintmask 10100000
          -33 -26 -27 -27 -5 127 callgsubr
          27 27 27 4 hvcurveto
          endchar
        </CharString>
        <CharString name="colonmonetary">
          -75 -21 803 -20 hstemhm
          94 50 112 44 -34 44 -36 44 47 44 -44 50 -33 44 -18 50 0 44 -44 50 6 50 hintmask 0000011000101000
          508 163 rmoveto
          24 4 -18 0 -8 hhcurveto
          -6 -17 0 -20 -5 hvcurveto
          -19 -84 -61 -35 -60 -15 91 546 rcurveline
          59 -21 34 -46 -72 vvcurveto
          -13 1 0 -12 21 hhcurveto
          26 3 16 16 3 hvcurveto
          23 143 rlineto
          12 2 4 20 -21 hhcurveto
          66 callsubr
          hintmask 0000000100000000
          -29 29 -29 16 -41 8 rrcurveto
          hintmask 0000000010000000
          11 65 rlineto
          hintmask 0100000001000000
          154 callsubr
          hintmask 0010100010000000
          -12 -12 136 callsubr
          -62 -131 -17 -118 -129 -29 -171 rlinecurve
          -29 -172 75 -128 126 -17 rrcurveto
          hintmask 0001000000000000
          -10 -63 rlineto
          hintmask 1000010000000000
          -12 -2 8 -10 12 hhcurveto
          hintmask 0001000000000000
          12 12 -5 callsubr
          hintmask 0010101000010000
          10 64 105 18 80 77 13 78 rlinecurve
          -235 -132 rmoveto
          -95 25 -58 106 24 144 24 144 95 106 102 24 rrcurveto
          endchar
        </CharString>
        <CharString name="comma">
          -123 -21 144 109 hstem
          341 16 rmoveto
          56 9 -28 37 -41 hhcurveto
          -35 -24 -26 -28 -5 hvcurveto
          -33 -5 21 -22 29 hhcurveto
          5 18 2 8 11 hvcurveto
          0 -2 -12 -3 -8 vhcurveto
          -21 -62 -63 -25 -22 -7 -8 -3 -8 -5 -1 -9 rrcurveto
          -11 -2 8 -12 12 hhcurveto
          31 106 53 107 18 hvcurveto
          endchar
        </CharString>
        <CharString name="copyleft">
          176 callgsubr
          111 19 10 30 0 19 170 30 96 19 hintmask 1000111001010000
          -51 callgsubr
          -96 -1 rmoveto
          109 18 -53 81 -77 hhcurveto
          -30 -29 -11 -22 -29 hvcurveto
          -8 21 0 2 3 vvcurveto
          3 -2 -3 4 -6 hhcurveto
          -13 -2 -12 -7 -1 hvcurveto
          hintmask 0111000110100000
          -14 -86 rlineto
          -10 -2 -1 -9 16 hhcurveto
          12 3 7 8 2 hvcurveto
          54 18 43 30 39 hhcurveto
          58 47 -68 -97 -16 hvcurveto
          -97 -17 -69 -68 -59 hhcurveto
          -27 -51 17 65 7 hvcurveto
          12 -10 0 -3 -5 -11 0 -14 -3 vhcurveto
          -53 -8 42 -52 68 hhcurveto
          78 79 80 110 19 hvcurveto
          endchar
        </CharString>
        <CharString name="copyright">
          176 callgsubr
          96 30 157 31 0 30 10 19 112 19 hintmask 1111011110110000
          -51 callgsubr
          -141 -87 rmoveto
          15 3 -11 0 -5 hhcurveto
          -3 -10 0 -12 -4 hvcurveto
          -66 -15 -57 -16 -27 hhcurveto
          -59 -47 68 97 17 hvcurveto
          97 16 69 68 58 hhcurveto
          40 32 -30 -54 hvcurveto
          -8 1 0 -7 12 hhcurveto
          16 1 9 10 2 hvcurveto
          hintmask 0100100101000000
          14 86 rlineto
          7 1 2 12 -13 hhcurveto
          -6 -3 -4 -3 -4 hvcurveto
          -3 -2 -2 -14 -21 vhcurveto
          22 -22 -25 11 -30 hhcurveto
          -78 -79 -80 -110 -18 hvcurveto
          -110 -19 53 -80 78 hhcurveto
          68 60 52 52 8 hvcurveto
          endchar
        </CharString>
        <CharString name="currency">
          162 52 184 52 hstem
          170 52 183 52 vstem
          444 149 rmoveto
          20 17 -16 21 -5 7 -26 30 rcurveline
          23 29 12 25 5 28 5 28 -4 25 -13 29 35 29 rcurveline
          7 7 22 22 -16 18 -13 14 -23 -18 -8 -6 -34 -30 rcurveline
          18 -26 -24 8 -27 hhcurveto
          -28 -27 -8 -18 -31 hvcurveto
          -26 31 -6 6 -18 19 -20 -17 rlinecurve
          -20 -17 16 -21 5 -7 26 -31 rcurveline
          -22 -28 -12 -26 -5 -27 -4 -27 3 -26 13 -28 -35 -29 rcurveline
          -8 -8 -22 -22 16 -18 13 -14 23 18 9 6 34 30 rcurveline
          -18 25 25 -8 28 hhcurveto
          27 26 8 18 32 hvcurveto
          25 -31 6 -6 18 -19 20 17 rlinecurve
          -39 157 rmoveto
          -50 -8 -48 -42 -50 hhcurveto
          -51 -34 42 50 8 hvcurveto
          50 8 48 42 51 hhcurveto
          50 34 -42 -50 -8 hvcurveto
          endchar
        </CharString>
        <CharString name="cwm">
          -107 endchar
        </CharString>
        <CharString name="cwmascender">
          -107 endchar
        </CharString>
        <CharString name="cwmcapital">
          -107 endchar
        </CharString>
        <CharString name="d">
          -6 149 callgsubr
          hintmask 01111000
          -10 callgsubr
          hintmask 10000000
          83 callgsubr
          hintmask 01000000
          43 callgsubr
          hintmask 10101000
          28 callgsubr
          endchar
        </CharString>
        <CharString name="dagger">
          -202 -21 633 49 249 -20 hstem
          267 61 16 61 vstem
          525 434 rmoveto
          10 2 -3 15 -29 hhcurveto
          -24 -37 -8 -6 -25 hvcurveto
          -1 -4 -40 -6 -26 hhcurveto
          6 33 4 27 24 65 12 38 15 44 5 31 rrcurveto
          6 1 4 26 -30 hhcurveto
          -31 -4 -25 -7 -1 hvcurveto
          -5 -27 0 -67 -25 vvcurveto
          2 -48 -6 -29 -6 -42 rrcurveto
          -25 -20 1 6 -24 hvcurveto
          6 -21 -32 8 -25 hhcurveto
          -32 -7 -20 -4 hvcurveto
          -10 -2 3 -15 29 hhcurveto
          25 36 9 6 26 hvcurveto
          1 6 27 3 35 hhcurveto
          -7 -38 -3 -14 -12 -27 -29 -73 -1 -8 -9 -54 -26 -156 -16 -173 -5 -105 rrcurveto
          -3 1 -1 3 5 1 3 7 2 vhcurveto
          35 111 31 137 30 180 9 55 1 7 -4 72 -3 24 0 17 7 39 rrcurveto
          27 19 1 -5 24 hvcurveto
          -6 21 33 -9 24 hhcurveto
          32 7 20 4 hvcurveto
          endchar
        </CharString>
        <CharString name="daggerdbl">
          -191 -21 201 49 421 49 200 -20 hstemhm
          201 61 4 61 -48 61 4 61 hintmask 01110011
          534 483 rmoveto
          10 1 -3 15 -29 hhcurveto
          -24 -37 213 callsubr
          9 31 7 15 13 34 14 225 callgsubr
          -21 -2 -28 -5 hvcurveto
          -1 -8 -1 -11 -11 vvcurveto
          3 -98 -2 213 callgsubr
          -32 8 -25 hhcurveto
          -32 -7 -20 -4 hvcurveto
          -10 -2 4 -13 29 hhcurveto
          25 35 6 6 26 hvcurveto
          2 6 28 5 33 hhcurveto
          -6 -34 -11 -41 -7 -15 -12 -33 -15 -40 -5 -29 rrcurveto
          -26 -4 19 -4 10 hhcurveto
          27 7 20 10 2 hvcurveto
          2 9 0 171 callsubr
          21 34 -8 24 hhcurveto
          32 6 20 4 1 hvcurveto
          -79 -470 rmoveto
          10 2 -4 15 -29 hhcurveto
          -24 -36 213 callsubr
          8 31 8 15 rrcurveto
          hintmask 11001100
          12 34 15 225 callgsubr
          -22 -2 -28 -4 hvcurveto
          -2 -8 0 -11 -11 vvcurveto
          2 -98 -1 213 callgsubr
          -33 8 -25 hhcurveto
          -32 -6 -20 -4 -1 hvcurveto
          -10 -1 3 -13 29 hhcurveto
          25 35 6 6 27 hvcurveto
          2 6 28 5 33 hhcurveto
          -6 -34 -12 -41 -6 -15 -13 -33 -15 -40 -4 -29 rrcurveto
          -26 -5 20 -4 10 hhcurveto
          27 7 20 10 2 hvcurveto
          1 9 1 171 callsubr
          20 34 -8 24 hhcurveto
          32 7 20 4 hvcurveto
          endchar
        </CharString>
        <CharString name="dblbracketleft">
          -85 52 679 52 hstem
          313 52 62 52 vstem
          484 -59 rmoveto
          14 2 -4 12 -20 hhcurveto
          -97 hlineto
          114 679 rlineto
          90 hlineto
          22 12 9 18 3 hvcurveto
          22 4 -17 3 -20 hhcurveto
          -255 hlineto
          -22 -29 0 -28 -4 hvcurveto
          -121 -725 rlineto
          -21 -4 8 -9 21 hhcurveto
          290 hlineto
          20 5 14 12 2 hvcurveto
          -171 183 callgsubr
        </CharString>
        <CharString name="dblbracketright">
          -85 52 679 52 hstem
          147 52 62 52 vstem
          363 -59 rmoveto
          122 730 rlineto
          12 2 -1 15 -21 hhcurveto
          -295 hlineto
          -19 -6 -14 -12 -2 138 callsubr
          -12 20 hhcurveto
          96 hlineto
          -114 -679 rlineto
          -96 hlineto
          -20 -8 -12 -14 210 callgsubr
          2 -14 19 hhcurveto
          296 hlineto
          19 6 14 12 2 hvcurveto
          -48 183 callgsubr
        </CharString>
        <CharString name="dblgrave.ts1">
          303 506 rmoveto
          11 10 0 16 -8 8 -70 65 rcurveline
          -10 9 -16 0 -13 -13 -9 -10 0 -17 7 -8 70 -64 rcurveline
          10 -9 15 0 13 13 rrcurveto
          181 hmoveto
          11 10 0 16 -8 8 -70 65 rcurveline
          -10 9 -16 0 -13 -13 -9 -10 0 -17 7 -8 70 -64 rcurveline
          10 -9 15 0 13 13 rrcurveto
          endchar
        </CharString>
        <CharString name="dblverticalbar">
          209 callgsubr
          hstem
          121 51 67 51 48 51 67 51 vstem
          172 -48 rmoveto
          118 707 rlineto
          9 1 5 29 -26 hhcurveto
          -25 195 callgsubr
          25 hhcurveto
          26 4 29 9 2 hvcurveto
          217 hmoveto
          118 707 rlineto
          9 1 5 29 -25 hhcurveto
          -26 195 callgsubr
          26 hhcurveto
          25 4 29 9 2 hvcurveto
          endchar
        </CharString>
        <CharString name="dcaron">
          -6 42 -36 175 callsubr
          17 231 callsubr
          74 50 421 28 31 28 hintmask 0110011000000000
          -10 callgsubr
          hintmask 1000000000000000
          83 callgsubr
          hintmask 0100000000000000
          43 callgsubr
          hintmask 1010011100000000
          28 callgsubr
          245 280 82 callsubr
          hintmask 0001100110000000
          -2 callgsubr
        </CharString>
        <CharString name="dcroat">
          -6 42 -36 175 callsubr
          44 43 51 42 hstemhm
          74 50 327 50 -43 50 hintmask 01010010
          92 callgsubr
          72 433 rlineto
          62 hlineto
          12 12 9 152 callsubr
          hintmask 00011001
          -62 hlineto
          11 61 -101 callsubr
          -9 -51 rlineto
          -164 hlineto
          -12 -10 191 callgsubr
          7 -9 12 hhcurveto
          hintmask 10110110
          164 hlineto
          -17 -103 rlineto
          43 -43 -37 16 -42 hhcurveto
          -107 -110 -94 -125 -21 hvcurveto
          83 callgsubr
          hintmask 01000000
          43 callgsubr
          hintmask 10100100
          28 callgsubr
          endchar
        </CharString>
        <CharString name="ddotbelow">
          137 callsubr
          149 callgsubr
          70 82 11 callgsubr
          hintmask 10000010
          -140 -429 -98 callgsubr
        </CharString>
        <CharString name="degree">
          472 40 69 40 hstem
          281 38 70 38 vstem
          427 546 rmoveto
          166 callsubr
          102 callgsubr
        </CharString>
</ttFont>
